<?xml version="1.0" encoding="utf-8" standalone="no"?>
<!DOCTYPE svg PUBLIC "-//W3C//DTD SVG 1.1//EN"
  "http://www.w3.org/Graphics/SVG/1.1/DTD/svg11.dtd">
<!-- Created with matplotlib (https://matplotlib.org/) -->
<svg height="720pt" version="1.1" viewBox="0 0 1296 720" width="1296pt" xmlns="http://www.w3.org/2000/svg" xmlns:xlink="http://www.w3.org/1999/xlink">
 <metadata>
  <rdf:RDF xmlns:cc="http://creativecommons.org/ns#" xmlns:dc="http://purl.org/dc/elements/1.1/" xmlns:rdf="http://www.w3.org/1999/02/22-rdf-syntax-ns#">
   <cc:Work>
    <dc:type rdf:resource="http://purl.org/dc/dcmitype/StillImage"/>
    <dc:date>2022-09-02T18:36:02.527817</dc:date>
    <dc:format>image/svg+xml</dc:format>
    <dc:creator>
     <cc:Agent>
      <dc:title>Matplotlib v3.3.4, https://matplotlib.org/</dc:title>
     </cc:Agent>
    </dc:creator>
   </cc:Work>
  </rdf:RDF>
 </metadata>
 <defs>
  <style type="text/css">*{stroke-linecap:butt;stroke-linejoin:round;}</style>
 </defs>
 <g id="figure_1">
  <g id="patch_1">
   <path d="M 0 720 
L 1296 720 
L 1296 0 
L 0 0 
z
" style="fill:#ffffff;"/>
  </g>
  <g id="axes_1">
   <g id="patch_2">
    <path d="M 52.65 694.056573 
L 1283.04 694.056573 
L 1283.04 12.96 
L 52.65 12.96 
z
" style="fill:#ffffff;"/>
   </g>
   <g id="matplotlib.axis_1">
    <g id="ytick_1">
     <g id="line2d_1">
      <path clip-path="url(#peb758800bb)" d="M 52.65 677.804811 
L 1283.04 677.804811 
" style="fill:none;stroke:#cccccc;stroke-linecap:round;"/>
     </g>
     <g id="text_1">
      <!-- 0.6 -->
      <g style="fill:#262626;" transform="translate(27.86 681.741608)scale(0.11 -0.11)">
       <defs>
        <path d="M 27.4375 71.875 
Q 37.84375 71.875 43.703125 64.453125 
Q 50.6875 55.671875 50.6875 35.296875 
Q 50.6875 14.984375 43.65625 6.109375 
Q 37.84375 -1.21875 27.4375 -1.21875 
Q 17 -1.21875 10.59375 6.8125 
Q 4.203125 14.84375 4.203125 35.453125 
Q 4.203125 55.671875 11.234375 64.546875 
Q 17.046875 71.875 27.4375 71.875 
z
M 27.4375 60.5 
Q 24.953125 60.5 23 58.90625 
Q 21.046875 57.328125 19.96875 53.21875 
Q 18.5625 47.90625 18.5625 35.296875 
Q 18.5625 22.703125 19.828125 17.984375 
Q 21.09375 13.28125 23.015625 11.71875 
Q 24.953125 10.15625 27.4375 10.15625 
Q 29.9375 10.15625 31.890625 11.734375 
Q 33.84375 13.328125 34.90625 17.4375 
Q 36.328125 22.703125 36.328125 35.296875 
Q 36.328125 47.90625 35.0625 52.609375 
Q 33.796875 57.328125 31.859375 58.90625 
Q 29.9375 60.5 27.4375 60.5 
z
" id="Arial-BoldMT-48"/>
        <path d="M 7.171875 0 
L 7.171875 13.71875 
L 20.90625 13.71875 
L 20.90625 0 
z
" id="Arial-BoldMT-46"/>
        <path d="M 50.734375 54.046875 
L 37.453125 52.59375 
Q 36.96875 56.6875 34.90625 58.640625 
Q 32.859375 60.59375 29.59375 60.59375 
Q 25.25 60.59375 22.234375 56.6875 
Q 19.234375 52.78125 18.453125 40.4375 
Q 23.578125 46.484375 31.203125 46.484375 
Q 39.796875 46.484375 45.921875 39.9375 
Q 52.046875 33.40625 52.046875 23.046875 
Q 52.046875 12.0625 45.59375 5.421875 
Q 39.15625 -1.21875 29.046875 -1.21875 
Q 18.21875 -1.21875 11.234375 7.203125 
Q 4.25 15.625 4.25 34.8125 
Q 4.25 54.5 11.515625 63.1875 
Q 18.796875 71.875 30.421875 71.875 
Q 38.578125 71.875 43.921875 67.3125 
Q 49.265625 62.75 50.734375 54.046875 
z
M 19.625 24.125 
Q 19.625 17.4375 22.703125 13.796875 
Q 25.78125 10.15625 29.734375 10.15625 
Q 33.546875 10.15625 36.078125 13.125 
Q 38.625 16.109375 38.625 22.90625 
Q 38.625 29.890625 35.890625 33.125 
Q 33.15625 36.375 29.046875 36.375 
Q 25.09375 36.375 22.359375 33.265625 
Q 19.625 30.171875 19.625 24.125 
z
" id="Arial-BoldMT-54"/>
       </defs>
       <use xlink:href="#Arial-BoldMT-48"/>
       <use x="55.615234" xlink:href="#Arial-BoldMT-46"/>
       <use x="83.398438" xlink:href="#Arial-BoldMT-54"/>
      </g>
     </g>
    </g>
    <g id="ytick_2">
     <g id="line2d_2">
      <path clip-path="url(#peb758800bb)" d="M 52.65 530.061519 
L 1283.04 530.061519 
" style="fill:none;stroke:#cccccc;stroke-linecap:round;"/>
     </g>
     <g id="text_2">
      <!-- 0.7 -->
      <g style="fill:#262626;" transform="translate(27.86 533.998316)scale(0.11 -0.11)">
       <defs>
        <path d="M 4.25 57.859375 
L 4.25 70.609375 
L 51.171875 70.609375 
L 51.171875 60.640625 
Q 45.359375 54.9375 39.34375 44.234375 
Q 33.34375 33.546875 30.1875 21.5 
Q 27.046875 9.46875 27.09375 0 
L 13.875 0 
Q 14.203125 14.84375 19.984375 30.265625 
Q 25.78125 45.703125 35.453125 57.859375 
z
" id="Arial-BoldMT-55"/>
       </defs>
       <use xlink:href="#Arial-BoldMT-48"/>
       <use x="55.615234" xlink:href="#Arial-BoldMT-46"/>
       <use x="83.398438" xlink:href="#Arial-BoldMT-55"/>
      </g>
     </g>
    </g>
    <g id="ytick_3">
     <g id="line2d_3">
      <path clip-path="url(#peb758800bb)" d="M 52.65 382.318228 
L 1283.04 382.318228 
" style="fill:none;stroke:#cccccc;stroke-linecap:round;"/>
     </g>
     <g id="text_3">
      <!-- 0.8 -->
      <g style="fill:#262626;" transform="translate(27.86 386.255025)scale(0.11 -0.11)">
       <defs>
        <path d="M 16.015625 38.625 
Q 10.6875 40.875 8.265625 44.796875 
Q 5.859375 48.734375 5.859375 53.421875 
Q 5.859375 61.421875 11.453125 66.640625 
Q 17.046875 71.875 27.34375 71.875 
Q 37.546875 71.875 43.1875 66.640625 
Q 48.828125 61.421875 48.828125 53.421875 
Q 48.828125 48.4375 46.234375 44.546875 
Q 43.65625 40.671875 38.96875 38.625 
Q 44.921875 36.234375 48.015625 31.640625 
Q 51.125 27.046875 51.125 21.046875 
Q 51.125 11.140625 44.796875 4.9375 
Q 38.484375 -1.265625 27.984375 -1.265625 
Q 18.21875 -1.265625 11.71875 3.859375 
Q 4.046875 9.90625 4.046875 20.453125 
Q 4.046875 26.265625 6.921875 31.125 
Q 9.8125 35.984375 16.015625 38.625 
z
M 18.84375 52.4375 
Q 18.84375 48.34375 21.15625 46.046875 
Q 23.484375 43.75 27.34375 43.75 
Q 31.25 43.75 33.59375 46.0625 
Q 35.9375 48.390625 35.9375 52.484375 
Q 35.9375 56.34375 33.609375 58.65625 
Q 31.296875 60.984375 27.484375 60.984375 
Q 23.53125 60.984375 21.1875 58.640625 
Q 18.84375 56.296875 18.84375 52.4375 
z
M 17.578125 21.78125 
Q 17.578125 16.109375 20.484375 12.9375 
Q 23.390625 9.765625 27.734375 9.765625 
Q 31.984375 9.765625 34.765625 12.8125 
Q 37.546875 15.875 37.546875 21.625 
Q 37.546875 26.65625 34.71875 29.703125 
Q 31.890625 32.765625 27.546875 32.765625 
Q 22.515625 32.765625 20.046875 29.296875 
Q 17.578125 25.828125 17.578125 21.78125 
z
" id="Arial-BoldMT-56"/>
       </defs>
       <use xlink:href="#Arial-BoldMT-48"/>
       <use x="55.615234" xlink:href="#Arial-BoldMT-46"/>
       <use x="83.398438" xlink:href="#Arial-BoldMT-56"/>
      </g>
     </g>
    </g>
    <g id="ytick_4">
     <g id="line2d_4">
      <path clip-path="url(#peb758800bb)" d="M 52.65 234.574937 
L 1283.04 234.574937 
" style="fill:none;stroke:#cccccc;stroke-linecap:round;"/>
     </g>
     <g id="text_4">
      <!-- 0.9 -->
      <g style="fill:#262626;" transform="translate(27.86 238.511734)scale(0.11 -0.11)">
       <defs>
        <path d="M 4.546875 16.546875 
L 17.828125 18.015625 
Q 18.3125 13.96875 20.359375 12.015625 
Q 22.40625 10.0625 25.78125 10.0625 
Q 30.03125 10.0625 33 13.96875 
Q 35.984375 17.875 36.8125 30.171875 
Q 31.640625 24.171875 23.875 24.171875 
Q 15.4375 24.171875 9.296875 30.6875 
Q 3.171875 37.203125 3.171875 47.65625 
Q 3.171875 58.546875 9.640625 65.203125 
Q 16.109375 71.875 26.125 71.875 
Q 37.015625 71.875 44 63.453125 
Q 50.984375 55.03125 50.984375 35.75 
Q 50.984375 16.109375 43.703125 7.421875 
Q 36.421875 -1.265625 24.75 -1.265625 
Q 16.359375 -1.265625 11.171875 3.203125 
Q 6 7.671875 4.546875 16.546875 
z
M 35.59375 46.53125 
Q 35.59375 53.171875 32.546875 56.828125 
Q 29.5 60.5 25.484375 60.5 
Q 21.6875 60.5 19.171875 57.5 
Q 16.65625 54.5 16.65625 47.65625 
Q 16.65625 40.71875 19.390625 37.46875 
Q 22.125 34.234375 26.21875 34.234375 
Q 30.171875 34.234375 32.875 37.359375 
Q 35.59375 40.484375 35.59375 46.53125 
z
" id="Arial-BoldMT-57"/>
       </defs>
       <use xlink:href="#Arial-BoldMT-48"/>
       <use x="55.615234" xlink:href="#Arial-BoldMT-46"/>
       <use x="83.398438" xlink:href="#Arial-BoldMT-57"/>
      </g>
     </g>
    </g>
    <g id="ytick_5">
     <g id="line2d_5">
      <path clip-path="url(#peb758800bb)" d="M 52.65 86.831646 
L 1283.04 86.831646 
" style="fill:none;stroke:#cccccc;stroke-linecap:round;"/>
     </g>
     <g id="text_5">
      <!-- 1.0 -->
      <g style="fill:#262626;" transform="translate(27.86 90.768443)scale(0.11 -0.11)">
       <defs>
        <path d="M 39.359375 0 
L 25.640625 0 
L 25.640625 51.703125 
Q 18.109375 44.671875 7.90625 41.3125 
L 7.90625 53.765625 
Q 13.28125 55.515625 19.578125 60.421875 
Q 25.875 65.328125 28.21875 71.875 
L 39.359375 71.875 
z
" id="Arial-BoldMT-49"/>
       </defs>
       <use xlink:href="#Arial-BoldMT-49"/>
       <use x="55.615234" xlink:href="#Arial-BoldMT-46"/>
       <use x="83.398438" xlink:href="#Arial-BoldMT-48"/>
      </g>
     </g>
    </g>
    <g id="text_6">
     <!-- Performance -->
     <g style="fill:#262626;" transform="translate(21.475 387.853599)rotate(-90)scale(0.12 -0.12)">
      <defs>
       <path d="M 7.71875 0 
L 7.71875 71.578125 
L 34.71875 71.578125 
Q 41.84375 71.578125 45.609375 70.90625 
Q 50.875 70.015625 54.4375 67.546875 
Q 58.015625 65.09375 60.1875 60.640625 
Q 62.359375 56.203125 62.359375 50.875 
Q 62.359375 41.75 56.546875 35.421875 
Q 50.734375 29.109375 35.546875 29.109375 
L 17.1875 29.109375 
L 17.1875 0 
z
M 17.1875 37.546875 
L 35.6875 37.546875 
Q 44.875 37.546875 48.734375 40.96875 
Q 52.59375 44.390625 52.59375 50.59375 
Q 52.59375 55.078125 50.3125 58.265625 
Q 48.046875 61.46875 44.34375 62.5 
Q 41.9375 63.140625 35.5 63.140625 
L 17.1875 63.140625 
z
" id="ArialMT-80"/>
       <path d="M 42.09375 16.703125 
L 51.171875 15.578125 
Q 49.03125 7.625 43.21875 3.21875 
Q 37.40625 -1.171875 28.375 -1.171875 
Q 17 -1.171875 10.328125 5.828125 
Q 3.65625 12.84375 3.65625 25.484375 
Q 3.65625 38.578125 10.390625 45.796875 
Q 17.140625 53.03125 27.875 53.03125 
Q 38.28125 53.03125 44.875 45.953125 
Q 51.46875 38.875 51.46875 26.03125 
Q 51.46875 25.25 51.421875 23.6875 
L 12.75 23.6875 
Q 13.234375 15.140625 17.578125 10.59375 
Q 21.921875 6.0625 28.421875 6.0625 
Q 33.25 6.0625 36.671875 8.59375 
Q 40.09375 11.140625 42.09375 16.703125 
z
M 13.234375 30.90625 
L 42.1875 30.90625 
Q 41.609375 37.453125 38.875 40.71875 
Q 34.671875 45.796875 27.984375 45.796875 
Q 21.921875 45.796875 17.796875 41.75 
Q 13.671875 37.703125 13.234375 30.90625 
z
" id="ArialMT-101"/>
       <path d="M 6.5 0 
L 6.5 51.859375 
L 14.40625 51.859375 
L 14.40625 44 
Q 17.4375 49.515625 20 51.265625 
Q 22.5625 53.03125 25.640625 53.03125 
Q 30.078125 53.03125 34.671875 50.203125 
L 31.640625 42.046875 
Q 28.421875 43.953125 25.203125 43.953125 
Q 22.3125 43.953125 20.015625 42.21875 
Q 17.71875 40.484375 16.75 37.40625 
Q 15.28125 32.71875 15.28125 27.15625 
L 15.28125 0 
z
" id="ArialMT-114"/>
       <path d="M 8.6875 0 
L 8.6875 45.015625 
L 0.921875 45.015625 
L 0.921875 51.859375 
L 8.6875 51.859375 
L 8.6875 57.375 
Q 8.6875 62.59375 9.625 65.140625 
Q 10.890625 68.5625 14.078125 70.671875 
Q 17.28125 72.796875 23.046875 72.796875 
Q 26.765625 72.796875 31.25 71.921875 
L 29.9375 64.265625 
Q 27.203125 64.75 24.75 64.75 
Q 20.75 64.75 19.09375 63.03125 
Q 17.4375 61.328125 17.4375 56.640625 
L 17.4375 51.859375 
L 27.546875 51.859375 
L 27.546875 45.015625 
L 17.4375 45.015625 
L 17.4375 0 
z
" id="ArialMT-102"/>
       <path d="M 3.328125 25.921875 
Q 3.328125 40.328125 11.328125 47.265625 
Q 18.015625 53.03125 27.640625 53.03125 
Q 38.328125 53.03125 45.109375 46.015625 
Q 51.90625 39.015625 51.90625 26.65625 
Q 51.90625 16.65625 48.90625 10.90625 
Q 45.90625 5.171875 40.15625 2 
Q 34.421875 -1.171875 27.640625 -1.171875 
Q 16.75 -1.171875 10.03125 5.8125 
Q 3.328125 12.796875 3.328125 25.921875 
z
M 12.359375 25.921875 
Q 12.359375 15.96875 16.703125 11.015625 
Q 21.046875 6.0625 27.640625 6.0625 
Q 34.1875 6.0625 38.53125 11.03125 
Q 42.875 16.015625 42.875 26.21875 
Q 42.875 35.84375 38.5 40.796875 
Q 34.125 45.75 27.640625 45.75 
Q 21.046875 45.75 16.703125 40.8125 
Q 12.359375 35.890625 12.359375 25.921875 
z
" id="ArialMT-111"/>
       <path d="M 6.59375 0 
L 6.59375 51.859375 
L 14.453125 51.859375 
L 14.453125 44.578125 
Q 16.890625 48.390625 20.9375 50.703125 
Q 25 53.03125 30.171875 53.03125 
Q 35.9375 53.03125 39.625 50.640625 
Q 43.3125 48.25 44.828125 43.953125 
Q 50.984375 53.03125 60.84375 53.03125 
Q 68.5625 53.03125 72.703125 48.75 
Q 76.859375 44.484375 76.859375 35.59375 
L 76.859375 0 
L 68.109375 0 
L 68.109375 32.671875 
Q 68.109375 37.9375 67.25 40.25 
Q 66.40625 42.578125 64.15625 43.984375 
Q 61.921875 45.40625 58.890625 45.40625 
Q 53.421875 45.40625 49.796875 41.765625 
Q 46.1875 38.140625 46.1875 30.125 
L 46.1875 0 
L 37.40625 0 
L 37.40625 33.6875 
Q 37.40625 39.546875 35.25 42.46875 
Q 33.109375 45.40625 28.21875 45.40625 
Q 24.515625 45.40625 21.359375 43.453125 
Q 18.21875 41.5 16.796875 37.734375 
Q 15.375 33.984375 15.375 26.90625 
L 15.375 0 
z
" id="ArialMT-109"/>
       <path d="M 40.4375 6.390625 
Q 35.546875 2.25 31.03125 0.53125 
Q 26.515625 -1.171875 21.34375 -1.171875 
Q 12.796875 -1.171875 8.203125 3 
Q 3.609375 7.171875 3.609375 13.671875 
Q 3.609375 17.484375 5.34375 20.625 
Q 7.078125 23.78125 9.890625 25.6875 
Q 12.703125 27.59375 16.21875 28.5625 
Q 18.796875 29.25 24.03125 29.890625 
Q 34.671875 31.15625 39.703125 32.90625 
Q 39.75 34.71875 39.75 35.203125 
Q 39.75 40.578125 37.25 42.78125 
Q 33.890625 45.75 27.25 45.75 
Q 21.046875 45.75 18.09375 43.578125 
Q 15.140625 41.40625 13.71875 35.890625 
L 5.125 37.0625 
Q 6.296875 42.578125 8.984375 45.96875 
Q 11.671875 49.359375 16.75 51.1875 
Q 21.828125 53.03125 28.515625 53.03125 
Q 35.15625 53.03125 39.296875 51.46875 
Q 43.453125 49.90625 45.40625 47.53125 
Q 47.359375 45.171875 48.140625 41.546875 
Q 48.578125 39.3125 48.578125 33.453125 
L 48.578125 21.734375 
Q 48.578125 9.46875 49.140625 6.21875 
Q 49.703125 2.984375 51.375 0 
L 42.1875 0 
Q 40.828125 2.734375 40.4375 6.390625 
z
M 39.703125 26.03125 
Q 34.90625 24.078125 25.34375 22.703125 
Q 19.921875 21.921875 17.671875 20.9375 
Q 15.4375 19.96875 14.203125 18.09375 
Q 12.984375 16.21875 12.984375 13.921875 
Q 12.984375 10.40625 15.640625 8.0625 
Q 18.3125 5.71875 23.4375 5.71875 
Q 28.515625 5.71875 32.46875 7.9375 
Q 36.421875 10.15625 38.28125 14.015625 
Q 39.703125 17 39.703125 22.796875 
z
" id="ArialMT-97"/>
       <path d="M 6.59375 0 
L 6.59375 51.859375 
L 14.5 51.859375 
L 14.5 44.484375 
Q 20.21875 53.03125 31 53.03125 
Q 35.6875 53.03125 39.625 51.34375 
Q 43.5625 49.65625 45.515625 46.921875 
Q 47.46875 44.1875 48.25 40.4375 
Q 48.734375 37.984375 48.734375 31.890625 
L 48.734375 0 
L 39.9375 0 
L 39.9375 31.546875 
Q 39.9375 36.921875 38.90625 39.578125 
Q 37.890625 42.234375 35.28125 43.8125 
Q 32.671875 45.40625 29.15625 45.40625 
Q 23.53125 45.40625 19.453125 41.84375 
Q 15.375 38.28125 15.375 28.328125 
L 15.375 0 
z
" id="ArialMT-110"/>
       <path d="M 40.4375 19 
L 49.078125 17.875 
Q 47.65625 8.9375 41.8125 3.875 
Q 35.984375 -1.171875 27.484375 -1.171875 
Q 16.84375 -1.171875 10.375 5.78125 
Q 3.90625 12.75 3.90625 25.734375 
Q 3.90625 34.125 6.6875 40.421875 
Q 9.46875 46.734375 15.15625 49.875 
Q 20.84375 53.03125 27.546875 53.03125 
Q 35.984375 53.03125 41.359375 48.75 
Q 46.734375 44.484375 48.25 36.625 
L 39.703125 35.296875 
Q 38.484375 40.53125 35.375 43.15625 
Q 32.28125 45.796875 27.875 45.796875 
Q 21.234375 45.796875 17.078125 41.03125 
Q 12.9375 36.28125 12.9375 25.984375 
Q 12.9375 15.53125 16.9375 10.796875 
Q 20.953125 6.0625 27.390625 6.0625 
Q 32.5625 6.0625 36.03125 9.234375 
Q 39.5 12.40625 40.4375 19 
z
" id="ArialMT-99"/>
      </defs>
      <use xlink:href="#ArialMT-80"/>
      <use x="66.699219" xlink:href="#ArialMT-101"/>
      <use x="122.314453" xlink:href="#ArialMT-114"/>
      <use x="155.615234" xlink:href="#ArialMT-102"/>
      <use x="183.398438" xlink:href="#ArialMT-111"/>
      <use x="239.013672" xlink:href="#ArialMT-114"/>
      <use x="272.314453" xlink:href="#ArialMT-109"/>
      <use x="355.615234" xlink:href="#ArialMT-97"/>
      <use x="411.230469" xlink:href="#ArialMT-110"/>
      <use x="466.845703" xlink:href="#ArialMT-99"/>
      <use x="516.845703" xlink:href="#ArialMT-101"/>
     </g>
    </g>
   </g>
   <g id="patch_3">
    <path clip-path="url(#peb758800bb)" d="M 60.8526 1564.264558 
L 126.4734 1564.264558 
L 126.4734 278.852209 
L 60.8526 278.852209 
z
" style="fill:#f2aba8;stroke:#ffffff;stroke-linejoin:miter;"/>
   </g>
   <g id="patch_4">
    <path clip-path="url(#peb758800bb)" d="M 142.8786 1564.264558 
L 208.4994 1564.264558 
L 208.4994 217.36177 
L 142.8786 217.36177 
z
" style="fill:#f2aba8;stroke:#ffffff;stroke-linejoin:miter;"/>
   </g>
   <g id="patch_5">
    <path clip-path="url(#peb758800bb)" d="M 224.9046 1564.264558 
L 290.5254 1564.264558 
L 290.5254 183.890864 
L 224.9046 183.890864 
z
" style="fill:#f2aba8;stroke:#ffffff;stroke-linejoin:miter;"/>
   </g>
   <g id="patch_6">
    <path clip-path="url(#peb758800bb)" d="M 306.9306 1564.264558 
L 372.5514 1564.264558 
L 372.5514 102.018009 
L 306.9306 102.018009 
z
" style="fill:#f2aba8;stroke:#ffffff;stroke-linejoin:miter;"/>
   </g>
   <g id="patch_7">
    <path clip-path="url(#peb758800bb)" d="M 388.9566 1564.264558 
L 454.5774 1564.264558 
L 454.5774 94.280131 
L 388.9566 94.280131 
z
" style="fill:#f2aba8;stroke:#ffffff;stroke-linejoin:miter;"/>
   </g>
   <g id="patch_8">
    <path clip-path="url(#peb758800bb)" d="M 470.9826 1564.264558 
L 536.6034 1564.264558 
L 536.6034 207.294573 
L 470.9826 207.294573 
z
" style="fill:#f2aba8;stroke:#ffffff;stroke-linejoin:miter;"/>
   </g>
   <g id="patch_9">
    <path clip-path="url(#peb758800bb)" d="M 553.0086 1564.264558 
L 618.6294 1564.264558 
L 618.6294 139.366745 
L 553.0086 139.366745 
z
" style="fill:#f2aba8;stroke:#ffffff;stroke-linejoin:miter;"/>
   </g>
   <g id="patch_10">
    <path clip-path="url(#peb758800bb)" d="M 635.0346 1564.264558 
L 700.6554 1564.264558 
L 700.6554 144.124646 
L 635.0346 144.124646 
z
" style="fill:#f2aba8;stroke:#ffffff;stroke-linejoin:miter;"/>
   </g>
   <g id="patch_11">
    <path clip-path="url(#peb758800bb)" d="M 717.0606 1564.264558 
L 782.6814 1564.264558 
L 782.6814 119.352745 
L 717.0606 119.352745 
z
" style="fill:#f2aba8;stroke:#ffffff;stroke-linejoin:miter;"/>
   </g>
   <g id="patch_12">
    <path clip-path="url(#peb758800bb)" d="M 799.0866 1564.264558 
L 864.7074 1564.264558 
L 864.7074 99.410211 
L 799.0866 99.410211 
z
" style="fill:#f2aba8;stroke:#ffffff;stroke-linejoin:miter;"/>
   </g>
   <g id="patch_13">
    <path clip-path="url(#peb758800bb)" d="M 881.1126 1564.264558 
L 946.7334 1564.264558 
L 946.7334 92.61678 
L 881.1126 92.61678 
z
" style="fill:#f2aba8;stroke:#ffffff;stroke-linejoin:miter;"/>
   </g>
   <g id="patch_14">
    <path clip-path="url(#peb758800bb)" d="M 963.1386 1564.264558 
L 1028.7594 1564.264558 
L 1028.7594 218.120593 
L 963.1386 218.120593 
z
" style="fill:#f2aba8;stroke:#ffffff;stroke-linejoin:miter;"/>
   </g>
   <g id="patch_15">
    <path clip-path="url(#peb758800bb)" d="M 1045.1646 1564.264558 
L 1110.7854 1564.264558 
L 1110.7854 154.308305 
L 1045.1646 154.308305 
z
" style="fill:#f2aba8;stroke:#ffffff;stroke-linejoin:miter;"/>
   </g>
   <g id="patch_16">
    <path clip-path="url(#peb758800bb)" d="M 1127.1906 1564.264558 
L 1192.8114 1564.264558 
L 1192.8114 179.408984 
L 1127.1906 179.408984 
z
" style="fill:#f2aba8;stroke:#ffffff;stroke-linejoin:miter;"/>
   </g>
   <g id="patch_17">
    <path clip-path="url(#peb758800bb)" d="M 1209.2166 1564.264558 
L 1274.8374 1564.264558 
L 1274.8374 109.603378 
L 1209.2166 109.603378 
z
" style="fill:#f2aba8;stroke:#ffffff;stroke-linejoin:miter;"/>
   </g>
   <g id="patch_18">
    <path clip-path="url(#peb758800bb)" d="M 60.8526 1564.264558 
L 126.4734 1564.264558 
L 126.4734 381.623653 
L 60.8526 381.623653 
z
" style="fill:#96cac1;stroke:#ffffff;stroke-linejoin:miter;"/>
   </g>
   <g id="patch_19">
    <path clip-path="url(#peb758800bb)" d="M 142.8786 1564.264558 
L 208.4994 1564.264558 
L 208.4994 251.663867 
L 142.8786 251.663867 
z
" style="fill:#96cac1;stroke:#ffffff;stroke-linejoin:miter;"/>
   </g>
   <g id="patch_20">
    <path clip-path="url(#peb758800bb)" d="M 224.9046 1564.264558 
L 290.5254 1564.264558 
L 290.5254 211.729126 
L 224.9046 211.729126 
z
" style="fill:#96cac1;stroke:#ffffff;stroke-linejoin:miter;"/>
   </g>
   <g id="patch_21">
    <path clip-path="url(#peb758800bb)" d="M 306.9306 1564.264558 
L 372.5514 1564.264558 
L 372.5514 116.975827 
L 306.9306 116.975827 
z
" style="fill:#f6f6bc;stroke:#ffffff;stroke-linejoin:miter;"/>
   </g>
   <g id="patch_22">
    <path clip-path="url(#peb758800bb)" d="M 388.9566 1564.264558 
L 454.5774 1564.264558 
L 454.5774 97.418914 
L 388.9566 97.418914 
z
" style="fill:#f6f6bc;stroke:#ffffff;stroke-linejoin:miter;"/>
   </g>
   <g id="patch_23">
    <path clip-path="url(#peb758800bb)" d="M 470.9826 1564.264558 
L 536.6034 1564.264558 
L 536.6034 428.929826 
L 470.9826 428.929826 
z
" style="fill:#c1bed6;stroke:#ffffff;stroke-linejoin:miter;"/>
   </g>
   <g id="patch_24">
    <path clip-path="url(#peb758800bb)" d="M 553.0086 1564.264558 
L 618.6294 1564.264558 
L 618.6294 213.370049 
L 553.0086 213.370049 
z
" style="fill:#c1bed6;stroke:#ffffff;stroke-linejoin:miter;"/>
   </g>
   <g id="patch_25">
    <path clip-path="url(#peb758800bb)" d="M 635.0346 1564.264558 
L 700.6554 1564.264558 
L 700.6554 175.512248 
L 635.0346 175.512248 
z
" style="fill:#8aafc9;stroke:#ffffff;stroke-linejoin:miter;"/>
   </g>
   <g id="patch_26">
    <path clip-path="url(#peb758800bb)" d="M 717.0606 1564.264558 
L 782.6814 1564.264558 
L 782.6814 134.936778 
L 717.0606 134.936778 
z
" style="fill:#8aafc9;stroke:#ffffff;stroke-linejoin:miter;"/>
   </g>
   <g id="patch_27">
    <path clip-path="url(#peb758800bb)" d="M 799.0866 1564.264558 
L 864.7074 1564.264558 
L 864.7074 214.50083 
L 799.0866 214.50083 
z
" style="fill:#eab375;stroke:#ffffff;stroke-linejoin:miter;"/>
   </g>
   <g id="patch_28">
    <path clip-path="url(#peb758800bb)" d="M 881.1126 1564.264558 
L 946.7334 1564.264558 
L 946.7334 133.727754 
L 881.1126 133.727754 
z
" style="fill:#eab375;stroke:#ffffff;stroke-linejoin:miter;"/>
   </g>
   <g id="patch_29">
    <path clip-path="url(#peb758800bb)" d="M 963.1386 1564.264558 
L 1028.7594 1564.264558 
L 1028.7594 392.637875 
L 963.1386 392.637875 
z
" style="fill:#afcf78;stroke:#ffffff;stroke-linejoin:miter;"/>
   </g>
   <g id="patch_30">
    <path clip-path="url(#peb758800bb)" d="M 1045.1646 1564.264558 
L 1110.7854 1564.264558 
L 1110.7854 202.153061 
L 1045.1646 202.153061 
z
" style="fill:#afcf78;stroke:#ffffff;stroke-linejoin:miter;"/>
   </g>
   <g id="patch_31">
    <path clip-path="url(#peb758800bb)" d="M 1127.1906 1564.264558 
L 1192.8114 1564.264558 
L 1192.8114 229.798898 
L 1127.1906 229.798898 
z
" style="fill:#f6d3e5;stroke:#ffffff;stroke-linejoin:miter;"/>
   </g>
   <g id="patch_32">
    <path clip-path="url(#peb758800bb)" d="M 1209.2166 1564.264558 
L 1274.8374 1564.264558 
L 1274.8374 130.978878 
L 1209.2166 130.978878 
z
" style="fill:#f6d3e5;stroke:#ffffff;stroke-linejoin:miter;"/>
   </g>
   <g id="line2d_6">
    <path clip-path="url(#peb758800bb)" d="M 0 0 
" style="fill:none;stroke:#424242;stroke-linecap:round;stroke-width:2.7;"/>
   </g>
   <g id="line2d_7">
    <path clip-path="url(#peb758800bb)" d="M 0 0 
" style="fill:none;stroke:#424242;stroke-linecap:round;stroke-width:2.7;"/>
   </g>
   <g id="line2d_8">
    <path clip-path="url(#peb758800bb)" d="M 0 0 
" style="fill:none;stroke:#424242;stroke-linecap:round;stroke-width:2.7;"/>
   </g>
   <g id="line2d_9">
    <path clip-path="url(#peb758800bb)" d="M 0 0 
" style="fill:none;stroke:#424242;stroke-linecap:round;stroke-width:2.7;"/>
   </g>
   <g id="line2d_10">
    <path clip-path="url(#peb758800bb)" d="M 0 0 
" style="fill:none;stroke:#424242;stroke-linecap:round;stroke-width:2.7;"/>
   </g>
   <g id="line2d_11">
    <path clip-path="url(#peb758800bb)" d="M 0 0 
" style="fill:none;stroke:#424242;stroke-linecap:round;stroke-width:2.7;"/>
   </g>
   <g id="line2d_12">
    <path clip-path="url(#peb758800bb)" d="M 0 0 
" style="fill:none;stroke:#424242;stroke-linecap:round;stroke-width:2.7;"/>
   </g>
   <g id="line2d_13">
    <path clip-path="url(#peb758800bb)" d="M 0 0 
" style="fill:none;stroke:#424242;stroke-linecap:round;stroke-width:2.7;"/>
   </g>
   <g id="line2d_14">
    <path clip-path="url(#peb758800bb)" d="M 0 0 
" style="fill:none;stroke:#424242;stroke-linecap:round;stroke-width:2.7;"/>
   </g>
   <g id="line2d_15">
    <path clip-path="url(#peb758800bb)" d="M 0 0 
" style="fill:none;stroke:#424242;stroke-linecap:round;stroke-width:2.7;"/>
   </g>
   <g id="line2d_16">
    <path clip-path="url(#peb758800bb)" d="M 0 0 
" style="fill:none;stroke:#424242;stroke-linecap:round;stroke-width:2.7;"/>
   </g>
   <g id="line2d_17">
    <path clip-path="url(#peb758800bb)" d="M 0 0 
" style="fill:none;stroke:#424242;stroke-linecap:round;stroke-width:2.7;"/>
   </g>
   <g id="line2d_18">
    <path clip-path="url(#peb758800bb)" d="M 0 0 
" style="fill:none;stroke:#424242;stroke-linecap:round;stroke-width:2.7;"/>
   </g>
   <g id="line2d_19">
    <path clip-path="url(#peb758800bb)" d="M 0 0 
" style="fill:none;stroke:#424242;stroke-linecap:round;stroke-width:2.7;"/>
   </g>
   <g id="line2d_20">
    <path clip-path="url(#peb758800bb)" d="M 0 0 
" style="fill:none;stroke:#424242;stroke-linecap:round;stroke-width:2.7;"/>
   </g>
   <g id="line2d_21">
    <path clip-path="url(#peb758800bb)" d="M 0 0 
" style="fill:none;stroke:#424242;stroke-linecap:round;stroke-width:2.7;"/>
   </g>
   <g id="line2d_22">
    <path clip-path="url(#peb758800bb)" d="M 0 0 
" style="fill:none;stroke:#424242;stroke-linecap:round;stroke-width:2.7;"/>
   </g>
   <g id="line2d_23">
    <path clip-path="url(#peb758800bb)" d="M 0 0 
" style="fill:none;stroke:#424242;stroke-linecap:round;stroke-width:2.7;"/>
   </g>
   <g id="line2d_24">
    <path clip-path="url(#peb758800bb)" d="M 0 0 
" style="fill:none;stroke:#424242;stroke-linecap:round;stroke-width:2.7;"/>
   </g>
   <g id="line2d_25">
    <path clip-path="url(#peb758800bb)" d="M 0 0 
" style="fill:none;stroke:#424242;stroke-linecap:round;stroke-width:2.7;"/>
   </g>
   <g id="line2d_26">
    <path clip-path="url(#peb758800bb)" d="M 0 0 
" style="fill:none;stroke:#424242;stroke-linecap:round;stroke-width:2.7;"/>
   </g>
   <g id="line2d_27">
    <path clip-path="url(#peb758800bb)" d="M 0 0 
" style="fill:none;stroke:#424242;stroke-linecap:round;stroke-width:2.7;"/>
   </g>
   <g id="line2d_28">
    <path clip-path="url(#peb758800bb)" d="M 0 0 
" style="fill:none;stroke:#424242;stroke-linecap:round;stroke-width:2.7;"/>
   </g>
   <g id="line2d_29">
    <path clip-path="url(#peb758800bb)" d="M 0 0 
" style="fill:none;stroke:#424242;stroke-linecap:round;stroke-width:2.7;"/>
   </g>
   <g id="line2d_30">
    <path clip-path="url(#peb758800bb)" d="M 0 0 
" style="fill:none;stroke:#424242;stroke-linecap:round;stroke-width:2.7;"/>
   </g>
   <g id="line2d_31">
    <path clip-path="url(#peb758800bb)" d="M 0 0 
" style="fill:none;stroke:#424242;stroke-linecap:round;stroke-width:2.7;"/>
   </g>
   <g id="line2d_32">
    <path clip-path="url(#peb758800bb)" d="M 0 0 
" style="fill:none;stroke:#424242;stroke-linecap:round;stroke-width:2.7;"/>
   </g>
   <g id="line2d_33">
    <path clip-path="url(#peb758800bb)" d="M 0 0 
" style="fill:none;stroke:#424242;stroke-linecap:round;stroke-width:2.7;"/>
   </g>
   <g id="line2d_34">
    <path clip-path="url(#peb758800bb)" d="M 0 0 
" style="fill:none;stroke:#424242;stroke-linecap:round;stroke-width:2.7;"/>
   </g>
   <g id="line2d_35">
    <path clip-path="url(#peb758800bb)" d="M 0 0 
" style="fill:none;stroke:#424242;stroke-linecap:round;stroke-width:2.7;"/>
   </g>
   <g id="line2d_36">
    <path clip-path="url(#peb758800bb)" d="M 52.65 234.574937 
L 93.663 234.574937 
L 134.676 234.574937 
L 175.689 234.574937 
L 216.702 234.574937 
L 257.715 234.574937 
L 298.728 234.574937 
L 339.741 234.574937 
L 380.754 234.574937 
L 421.767 234.574937 
L 462.78 234.574937 
L 503.793 234.574937 
L 544.806 234.574937 
L 585.819 234.574937 
L 626.832 234.574937 
L 667.845 234.574937 
L 708.858 234.574937 
L 749.871 234.574937 
L 790.884 234.574937 
L 831.897 234.574937 
L 872.91 234.574937 
L 913.923 234.574937 
L 954.936 234.574937 
L 995.949 234.574937 
L 1036.962 234.574937 
L 1077.975 234.574937 
L 1118.988 234.574937 
L 1160.001 234.574937 
L 1201.014 234.574937 
L 1242.027 234.574937 
L 1283.04 234.574937 
" style="fill:none;stroke:#d65f5f;stroke-dasharray:1.5,2.475;stroke-dashoffset:0;stroke-width:1.5;"/>
   </g>
   <g id="line2d_37">
    <path clip-path="url(#peb758800bb)" d="M 73.1565 692.57914 
L 278.2215 692.57914 
" style="fill:none;stroke:#1a1a1a;stroke-linecap:round;stroke-width:1.5;"/>
   </g>
   <g id="line2d_38">
    <path clip-path="url(#peb758800bb)" d="M 319.2345 692.57914 
L 442.2735 692.57914 
" style="fill:none;stroke:#1a1a1a;stroke-linecap:round;stroke-width:1.5;"/>
   </g>
   <g id="line2d_39">
    <path clip-path="url(#peb758800bb)" d="M 483.2865 692.57914 
L 606.3255 692.57914 
" style="fill:none;stroke:#1a1a1a;stroke-linecap:round;stroke-width:1.5;"/>
   </g>
   <g id="line2d_40">
    <path clip-path="url(#peb758800bb)" d="M 647.3385 692.57914 
L 770.3775 692.57914 
" style="fill:none;stroke:#1a1a1a;stroke-linecap:round;stroke-width:1.5;"/>
   </g>
   <g id="line2d_41">
    <path clip-path="url(#peb758800bb)" d="M 811.3905 692.57914 
L 934.4295 692.57914 
" style="fill:none;stroke:#1a1a1a;stroke-linecap:round;stroke-width:1.5;"/>
   </g>
   <g id="line2d_42">
    <path clip-path="url(#peb758800bb)" d="M 975.4425 692.57914 
L 1098.4815 692.57914 
" style="fill:none;stroke:#1a1a1a;stroke-linecap:round;stroke-width:1.5;"/>
   </g>
   <g id="line2d_43">
    <path clip-path="url(#peb758800bb)" d="M 1139.4945 692.57914 
L 1262.5335 692.57914 
" style="fill:none;stroke:#1a1a1a;stroke-linecap:round;stroke-width:1.5;"/>
   </g>
   <g id="text_7">
    <!-- 80.0% -->
    <g style="fill:#1a1a1a;" transform="translate(76.651125 391.226967)scale(0.12 -0.12)">
     <defs>
      <path d="M 4.34375 53.90625 
Q 4.34375 63.53125 8.5625 68.15625 
Q 12.796875 72.796875 20.015625 72.796875 
Q 27.484375 72.796875 31.703125 68.1875 
Q 35.9375 63.578125 35.9375 53.90625 
Q 35.9375 44.28125 31.703125 39.640625 
Q 27.484375 35.015625 20.265625 35.015625 
Q 12.796875 35.015625 8.5625 39.625 
Q 4.34375 44.234375 4.34375 53.90625 
z
M 15.046875 54 
Q 15.046875 47.015625 16.65625 44.625 
Q 17.875 42.875 20.015625 42.875 
Q 22.21875 42.875 23.4375 44.625 
Q 25 47.015625 25 54 
Q 25 60.984375 23.4375 63.328125 
Q 22.21875 65.140625 20.015625 65.140625 
Q 17.875 65.140625 16.65625 63.375 
Q 15.046875 60.984375 15.046875 54 
z
M 30.46875 -2.734375 
L 20.3125 -2.734375 
L 58.453125 72.796875 
L 68.3125 72.796875 
z
M 52.640625 16.0625 
Q 52.640625 25.6875 56.859375 30.328125 
Q 61.078125 34.96875 68.40625 34.96875 
Q 75.78125 34.96875 80 30.328125 
Q 84.234375 25.6875 84.234375 16.0625 
Q 84.234375 6.390625 80 1.75 
Q 75.78125 -2.875 68.5625 -2.875 
Q 61.078125 -2.875 56.859375 1.75 
Q 52.640625 6.390625 52.640625 16.0625 
z
M 63.328125 16.109375 
Q 63.328125 9.125 64.9375 6.78125 
Q 66.15625 4.984375 68.3125 4.984375 
Q 70.515625 4.984375 71.6875 6.734375 
Q 73.296875 9.125 73.296875 16.109375 
Q 73.296875 23.09375 71.734375 25.484375 
Q 70.515625 27.25 68.3125 27.25 
Q 66.109375 27.25 64.9375 25.484375 
Q 63.328125 23.09375 63.328125 16.109375 
z
" id="Arial-BoldMT-37"/>
     </defs>
     <use xlink:href="#Arial-BoldMT-56"/>
     <use x="55.615234" xlink:href="#Arial-BoldMT-48"/>
     <use x="111.230469" xlink:href="#Arial-BoldMT-46"/>
     <use x="139.013672" xlink:href="#Arial-BoldMT-48"/>
     <use x="194.628906" xlink:href="#Arial-BoldMT-37"/>
    </g>
   </g>
   <g id="text_8">
    <!-- 87.0% -->
    <g style="fill:#1a1a1a;" transform="translate(76.651125 278.852209)scale(0.12 -0.12)">
     <use xlink:href="#Arial-BoldMT-56"/>
     <use x="55.615234" xlink:href="#Arial-BoldMT-55"/>
     <use x="111.230469" xlink:href="#Arial-BoldMT-46"/>
     <use x="139.013672" xlink:href="#Arial-BoldMT-48"/>
     <use x="194.628906" xlink:href="#Arial-BoldMT-37"/>
    </g>
   </g>
   <g id="text_9">
    <!-- 100K -->
    <g style="fill:#1a1a1a;" transform="translate(79.320188 688.146841)scale(0.12 -0.12)">
     <defs>
      <path d="M 7.46875 0 
L 7.46875 71.578125 
L 21.921875 71.578125 
L 21.921875 39.796875 
L 51.125 71.578125 
L 70.5625 71.578125 
L 43.609375 43.703125 
L 72.015625 0 
L 53.328125 0 
L 33.640625 33.59375 
L 21.921875 21.625 
L 21.921875 0 
z
" id="Arial-BoldMT-75"/>
     </defs>
     <use xlink:href="#Arial-BoldMT-49"/>
     <use x="55.615234" xlink:href="#Arial-BoldMT-48"/>
     <use x="111.230469" xlink:href="#Arial-BoldMT-48"/>
     <use x="166.845703" xlink:href="#Arial-BoldMT-75"/>
    </g>
   </g>
   <g id="text_10">
    <!-- ACT -->
    <g style="fill:#1a1a1a;" transform="translate(163.358062 707.353469)scale(0.12 -0.12)">
     <defs>
      <path d="M 71.828125 0 
L 56.109375 0 
L 49.859375 16.265625 
L 21.234375 16.265625 
L 15.328125 0 
L 0 0 
L 27.875 71.578125 
L 43.171875 71.578125 
z
M 45.21875 28.328125 
L 35.359375 54.890625 
L 25.6875 28.328125 
z
" id="Arial-BoldMT-65"/>
      <path d="M 53.078125 26.3125 
L 67.09375 21.875 
Q 63.875 10.15625 56.375 4.46875 
Q 48.875 -1.21875 37.359375 -1.21875 
Q 23.09375 -1.21875 13.90625 8.515625 
Q 4.734375 18.265625 4.734375 35.15625 
Q 4.734375 53.03125 13.953125 62.90625 
Q 23.1875 72.796875 38.234375 72.796875 
Q 51.375 72.796875 59.578125 65.046875 
Q 64.453125 60.453125 66.890625 51.859375 
L 52.59375 48.4375 
Q 51.3125 54 47.28125 57.21875 
Q 43.265625 60.453125 37.5 60.453125 
Q 29.546875 60.453125 24.578125 54.734375 
Q 19.625 49.03125 19.625 36.234375 
Q 19.625 22.65625 24.5 16.890625 
Q 29.390625 11.140625 37.203125 11.140625 
Q 42.96875 11.140625 47.109375 14.796875 
Q 51.265625 18.453125 53.078125 26.3125 
z
" id="Arial-BoldMT-67"/>
      <path d="M 23.390625 0 
L 23.390625 59.46875 
L 2.15625 59.46875 
L 2.15625 71.578125 
L 59.03125 71.578125 
L 59.03125 59.46875 
L 37.84375 59.46875 
L 37.84375 0 
z
" id="Arial-BoldMT-84"/>
     </defs>
     <use xlink:href="#Arial-BoldMT-65"/>
     <use x="72.216797" xlink:href="#Arial-BoldMT-67"/>
     <use x="144.433594" xlink:href="#Arial-BoldMT-84"/>
    </g>
   </g>
   <g id="text_11">
    <!-- 88.8% -->
    <g style="fill:#1a1a1a;" transform="translate(158.677125 261.267181)scale(0.12 -0.12)">
     <use xlink:href="#Arial-BoldMT-56"/>
     <use x="55.615234" xlink:href="#Arial-BoldMT-56"/>
     <use x="111.230469" xlink:href="#Arial-BoldMT-46"/>
     <use x="139.013672" xlink:href="#Arial-BoldMT-56"/>
     <use x="194.628906" xlink:href="#Arial-BoldMT-37"/>
    </g>
   </g>
   <g id="text_12">
    <!-- 91.2% -->
    <g style="fill:#1a1a1a;" transform="translate(158.677125 217.36177)scale(0.12 -0.12)">
     <defs>
      <path d="M 50.59375 12.75 
L 50.59375 0 
L 2.484375 0 
Q 3.265625 7.234375 7.171875 13.703125 
Q 11.078125 20.171875 22.609375 30.859375 
Q 31.890625 39.5 33.984375 42.578125 
Q 36.8125 46.828125 36.8125 50.984375 
Q 36.8125 55.5625 34.34375 58.03125 
Q 31.890625 60.5 27.546875 60.5 
Q 23.25 60.5 20.703125 57.90625 
Q 18.171875 55.328125 17.78125 49.3125 
L 4.109375 50.6875 
Q 5.328125 62.015625 11.765625 66.9375 
Q 18.21875 71.875 27.875 71.875 
Q 38.484375 71.875 44.53125 66.15625 
Q 50.59375 60.453125 50.59375 51.953125 
Q 50.59375 47.125 48.859375 42.75 
Q 47.125 38.375 43.359375 33.59375 
Q 40.875 30.421875 34.375 24.453125 
Q 27.875 18.5 26.140625 16.546875 
Q 24.421875 14.59375 23.34375 12.75 
z
" id="Arial-BoldMT-50"/>
     </defs>
     <use xlink:href="#Arial-BoldMT-57"/>
     <use x="55.615234" xlink:href="#Arial-BoldMT-49"/>
     <use x="111.230469" xlink:href="#Arial-BoldMT-46"/>
     <use x="139.013672" xlink:href="#Arial-BoldMT-50"/>
     <use x="194.628906" xlink:href="#Arial-BoldMT-37"/>
    </g>
   </g>
   <g id="text_13">
    <!-- 500K -->
    <g style="fill:#1a1a1a;" transform="translate(161.346187 688.146841)scale(0.12 -0.12)">
     <defs>
      <path d="M 4.4375 18.40625 
L 18.109375 19.828125 
Q 18.703125 15.1875 21.578125 12.46875 
Q 24.46875 9.765625 28.21875 9.765625 
Q 32.515625 9.765625 35.5 13.25 
Q 38.484375 16.75 38.484375 23.78125 
Q 38.484375 30.375 35.515625 33.671875 
Q 32.5625 36.96875 27.828125 36.96875 
Q 21.921875 36.96875 17.234375 31.734375 
L 6.109375 33.34375 
L 13.140625 70.609375 
L 49.421875 70.609375 
L 49.421875 57.765625 
L 23.53125 57.765625 
L 21.390625 45.609375 
Q 25.984375 47.90625 30.765625 47.90625 
Q 39.890625 47.90625 46.234375 41.265625 
Q 52.59375 34.625 52.59375 24.03125 
Q 52.59375 15.1875 47.46875 8.25 
Q 40.484375 -1.21875 28.078125 -1.21875 
Q 18.171875 -1.21875 11.921875 4.09375 
Q 5.671875 9.421875 4.4375 18.40625 
z
" id="Arial-BoldMT-53"/>
     </defs>
     <use xlink:href="#Arial-BoldMT-53"/>
     <use x="55.615234" xlink:href="#Arial-BoldMT-48"/>
     <use x="111.230469" xlink:href="#Arial-BoldMT-48"/>
     <use x="166.845703" xlink:href="#Arial-BoldMT-75"/>
    </g>
   </g>
   <g id="text_14">
    <!-- 91.5% -->
    <g style="fill:#1a1a1a;" transform="translate(240.703125 221.332439)scale(0.12 -0.12)">
     <use xlink:href="#Arial-BoldMT-57"/>
     <use x="55.615234" xlink:href="#Arial-BoldMT-49"/>
     <use x="111.230469" xlink:href="#Arial-BoldMT-46"/>
     <use x="139.013672" xlink:href="#Arial-BoldMT-53"/>
     <use x="194.628906" xlink:href="#Arial-BoldMT-37"/>
    </g>
   </g>
   <g id="text_15">
    <!-- 93.4% -->
    <g style="fill:#1a1a1a;" transform="translate(240.703125 183.890864)scale(0.12 -0.12)">
     <defs>
      <path d="M 3.765625 19 
L 17.046875 20.609375 
Q 17.671875 15.53125 20.453125 12.84375 
Q 23.25 10.15625 27.203125 10.15625 
Q 31.453125 10.15625 34.34375 13.375 
Q 37.25 16.609375 37.25 22.078125 
Q 37.25 27.25 34.46875 30.265625 
Q 31.6875 33.296875 27.6875 33.296875 
Q 25.046875 33.296875 21.390625 32.28125 
L 22.90625 43.453125 
Q 28.46875 43.3125 31.390625 45.875 
Q 34.328125 48.4375 34.328125 52.6875 
Q 34.328125 56.296875 32.171875 58.4375 
Q 30.03125 60.59375 26.46875 60.59375 
Q 22.953125 60.59375 20.453125 58.15625 
Q 17.96875 55.71875 17.4375 51.03125 
L 4.78125 53.171875 
Q 6.109375 59.671875 8.765625 63.546875 
Q 11.421875 67.4375 16.1875 69.65625 
Q 20.953125 71.875 26.859375 71.875 
Q 36.96875 71.875 43.0625 65.4375 
Q 48.09375 60.15625 48.09375 53.515625 
Q 48.09375 44.09375 37.796875 38.484375 
Q 43.953125 37.15625 47.625 32.5625 
Q 51.3125 27.984375 51.3125 21.484375 
Q 51.3125 12.0625 44.421875 5.421875 
Q 37.546875 -1.21875 27.296875 -1.21875 
Q 17.578125 -1.21875 11.171875 4.375 
Q 4.78125 9.96875 3.765625 19 
z
" id="Arial-BoldMT-51"/>
      <path d="M 31.15625 0 
L 31.15625 14.40625 
L 1.859375 14.40625 
L 1.859375 26.421875 
L 32.90625 71.875 
L 44.4375 71.875 
L 44.4375 26.46875 
L 53.328125 26.46875 
L 53.328125 14.40625 
L 44.4375 14.40625 
L 44.4375 0 
z
M 31.15625 26.46875 
L 31.15625 50.921875 
L 14.703125 26.46875 
z
" id="Arial-BoldMT-52"/>
     </defs>
     <use xlink:href="#Arial-BoldMT-57"/>
     <use x="55.615234" xlink:href="#Arial-BoldMT-51"/>
     <use x="111.230469" xlink:href="#Arial-BoldMT-46"/>
     <use x="139.013672" xlink:href="#Arial-BoldMT-52"/>
     <use x="194.628906" xlink:href="#Arial-BoldMT-37"/>
    </g>
   </g>
   <g id="text_16">
    <!-- 1M -->
    <g style="fill:#1a1a1a;" transform="translate(249.380625 688.146841)scale(0.12 -0.12)">
     <defs>
      <path d="M 7.078125 0 
L 7.078125 71.578125 
L 28.71875 71.578125 
L 41.703125 22.75 
L 54.546875 71.578125 
L 76.21875 71.578125 
L 76.21875 0 
L 62.796875 0 
L 62.796875 56.34375 
L 48.578125 0 
L 34.671875 0 
L 20.515625 56.34375 
L 20.515625 0 
z
" id="Arial-BoldMT-77"/>
     </defs>
     <use xlink:href="#Arial-BoldMT-49"/>
     <use x="55.615234" xlink:href="#Arial-BoldMT-77"/>
    </g>
   </g>
   <g id="text_17">
    <!-- 98.0% -->
    <g style="fill:#1a1a1a;" transform="translate(322.729125 126.57914)scale(0.12 -0.12)">
     <use xlink:href="#Arial-BoldMT-57"/>
     <use x="55.615234" xlink:href="#Arial-BoldMT-56"/>
     <use x="111.230469" xlink:href="#Arial-BoldMT-46"/>
     <use x="139.013672" xlink:href="#Arial-BoldMT-48"/>
     <use x="194.628906" xlink:href="#Arial-BoldMT-37"/>
    </g>
   </g>
   <g id="text_18">
    <!-- 99.0% -->
    <g style="fill:#1a1a1a;" transform="translate(322.729125 102.018009)scale(0.12 -0.12)">
     <use xlink:href="#Arial-BoldMT-57"/>
     <use x="55.615234" xlink:href="#Arial-BoldMT-57"/>
     <use x="111.230469" xlink:href="#Arial-BoldMT-46"/>
     <use x="139.013672" xlink:href="#Arial-BoldMT-48"/>
     <use x="194.628906" xlink:href="#Arial-BoldMT-37"/>
    </g>
   </g>
   <g id="text_19">
    <!-- 100K -->
    <g style="fill:#1a1a1a;" transform="translate(325.398188 688.146841)scale(0.12 -0.12)">
     <use xlink:href="#Arial-BoldMT-49"/>
     <use x="55.615234" xlink:href="#Arial-BoldMT-48"/>
     <use x="111.230469" xlink:href="#Arial-BoldMT-48"/>
     <use x="166.845703" xlink:href="#Arial-BoldMT-75"/>
    </g>
   </g>
   <g id="text_20">
    <!-- 99.3% -->
    <g style="fill:#1a1a1a;" transform="translate(404.755125 107.022228)scale(0.12 -0.12)">
     <use xlink:href="#Arial-BoldMT-57"/>
     <use x="55.615234" xlink:href="#Arial-BoldMT-57"/>
     <use x="111.230469" xlink:href="#Arial-BoldMT-46"/>
     <use x="139.013672" xlink:href="#Arial-BoldMT-51"/>
     <use x="194.628906" xlink:href="#Arial-BoldMT-37"/>
    </g>
   </g>
   <g id="text_21">
    <!-- 99.5% -->
    <g style="fill:#1a1a1a;" transform="translate(404.755125 94.280131)scale(0.12 -0.12)">
     <use xlink:href="#Arial-BoldMT-57"/>
     <use x="55.615234" xlink:href="#Arial-BoldMT-57"/>
     <use x="111.230469" xlink:href="#Arial-BoldMT-46"/>
     <use x="139.013672" xlink:href="#Arial-BoldMT-53"/>
     <use x="194.628906" xlink:href="#Arial-BoldMT-37"/>
    </g>
   </g>
   <g id="text_22">
    <!-- 500K -->
    <g style="fill:#1a1a1a;" transform="translate(407.424188 688.146841)scale(0.12 -0.12)">
     <use xlink:href="#Arial-BoldMT-53"/>
     <use x="55.615234" xlink:href="#Arial-BoldMT-48"/>
     <use x="111.230469" xlink:href="#Arial-BoldMT-48"/>
     <use x="166.845703" xlink:href="#Arial-BoldMT-75"/>
    </g>
   </g>
   <g id="text_23">
    <!-- DIG -->
    <g style="fill:#1a1a1a;" transform="translate(370.087125 707.353469)scale(0.12 -0.12)">
     <defs>
      <path d="M 7.234375 71.578125 
L 33.640625 71.578125 
Q 42.578125 71.578125 47.265625 70.21875 
Q 53.5625 68.359375 58.046875 63.625 
Q 62.546875 58.890625 64.890625 52.03125 
Q 67.234375 45.171875 67.234375 35.109375 
Q 67.234375 26.265625 65.046875 19.875 
Q 62.359375 12.0625 57.375 7.234375 
Q 53.609375 3.5625 47.21875 1.515625 
Q 42.4375 0 34.421875 0 
L 7.234375 0 
z
M 21.6875 59.46875 
L 21.6875 12.0625 
L 32.46875 12.0625 
Q 38.53125 12.0625 41.21875 12.75 
Q 44.734375 13.625 47.046875 15.71875 
Q 49.359375 17.828125 50.828125 22.625 
Q 52.296875 27.4375 52.296875 35.75 
Q 52.296875 44.046875 50.828125 48.484375 
Q 49.359375 52.9375 46.71875 55.421875 
Q 44.09375 57.90625 40.046875 58.796875 
Q 37.015625 59.46875 28.171875 59.46875 
z
" id="Arial-BoldMT-68"/>
      <path d="M 6.84375 0 
L 6.84375 71.578125 
L 21.296875 71.578125 
L 21.296875 0 
z
" id="Arial-BoldMT-73"/>
      <path d="M 40.578125 26.3125 
L 40.578125 38.375 
L 71.734375 38.375 
L 71.734375 9.859375 
Q 67.1875 5.46875 58.5625 2.125 
Q 49.953125 -1.21875 41.109375 -1.21875 
Q 29.890625 -1.21875 21.53125 3.484375 
Q 13.1875 8.203125 8.984375 16.96875 
Q 4.78125 25.734375 4.78125 36.03125 
Q 4.78125 47.21875 9.46875 55.90625 
Q 14.15625 64.59375 23.1875 69.234375 
Q 30.078125 72.796875 40.328125 72.796875 
Q 53.65625 72.796875 61.15625 67.203125 
Q 68.65625 61.625 70.796875 51.765625 
L 56.453125 49.078125 
Q 54.9375 54.34375 50.75 57.390625 
Q 46.578125 60.453125 40.328125 60.453125 
Q 30.859375 60.453125 25.265625 54.4375 
Q 19.671875 48.4375 19.671875 36.625 
Q 19.671875 23.875 25.328125 17.5 
Q 31 11.140625 40.1875 11.140625 
Q 44.734375 11.140625 49.296875 12.921875 
Q 53.859375 14.703125 57.125 17.234375 
L 57.125 26.3125 
z
" id="Arial-BoldMT-71"/>
     </defs>
     <use xlink:href="#Arial-BoldMT-68"/>
     <use x="72.216797" xlink:href="#Arial-BoldMT-73"/>
     <use x="100" xlink:href="#Arial-BoldMT-71"/>
    </g>
   </g>
   <g id="text_24">
    <!-- 76.8% -->
    <g style="fill:#1a1a1a;" transform="translate(486.781125 438.53314)scale(0.12 -0.12)">
     <use xlink:href="#Arial-BoldMT-55"/>
     <use x="55.615234" xlink:href="#Arial-BoldMT-54"/>
     <use x="111.230469" xlink:href="#Arial-BoldMT-46"/>
     <use x="139.013672" xlink:href="#Arial-BoldMT-56"/>
     <use x="194.628906" xlink:href="#Arial-BoldMT-37"/>
    </g>
   </g>
   <g id="text_25">
    <!-- 91.8% -->
    <g style="fill:#1a1a1a;" transform="translate(486.781125 207.294573)scale(0.12 -0.12)">
     <use xlink:href="#Arial-BoldMT-57"/>
     <use x="55.615234" xlink:href="#Arial-BoldMT-49"/>
     <use x="111.230469" xlink:href="#Arial-BoldMT-46"/>
     <use x="139.013672" xlink:href="#Arial-BoldMT-56"/>
     <use x="194.628906" xlink:href="#Arial-BoldMT-37"/>
    </g>
   </g>
   <g id="text_26">
    <!-- 100K -->
    <g style="fill:#1a1a1a;" transform="translate(489.450188 688.146841)scale(0.12 -0.12)">
     <use xlink:href="#Arial-BoldMT-49"/>
     <use x="55.615234" xlink:href="#Arial-BoldMT-48"/>
     <use x="111.230469" xlink:href="#Arial-BoldMT-48"/>
     <use x="166.845703" xlink:href="#Arial-BoldMT-75"/>
    </g>
   </g>
   <g id="text_27">
    <!-- 91.4% -->
    <g style="fill:#1a1a1a;" transform="translate(568.807125 222.973363)scale(0.12 -0.12)">
     <use xlink:href="#Arial-BoldMT-57"/>
     <use x="55.615234" xlink:href="#Arial-BoldMT-49"/>
     <use x="111.230469" xlink:href="#Arial-BoldMT-46"/>
     <use x="139.013672" xlink:href="#Arial-BoldMT-52"/>
     <use x="194.628906" xlink:href="#Arial-BoldMT-37"/>
    </g>
   </g>
   <g id="text_28">
    <!-- 96.4% -->
    <g style="fill:#1a1a1a;" transform="translate(568.807125 139.366745)scale(0.12 -0.12)">
     <use xlink:href="#Arial-BoldMT-57"/>
     <use x="55.615234" xlink:href="#Arial-BoldMT-54"/>
     <use x="111.230469" xlink:href="#Arial-BoldMT-46"/>
     <use x="139.013672" xlink:href="#Arial-BoldMT-52"/>
     <use x="194.628906" xlink:href="#Arial-BoldMT-37"/>
    </g>
   </g>
   <g id="text_29">
    <!-- 500K -->
    <g style="fill:#1a1a1a;" transform="translate(571.476187 688.146841)scale(0.12 -0.12)">
     <use xlink:href="#Arial-BoldMT-53"/>
     <use x="55.615234" xlink:href="#Arial-BoldMT-48"/>
     <use x="111.230469" xlink:href="#Arial-BoldMT-48"/>
     <use x="166.845703" xlink:href="#Arial-BoldMT-75"/>
    </g>
   </g>
   <g id="text_30">
    <!-- FER -->
    <g style="fill:#1a1a1a;" transform="translate(532.806 707.353469)scale(0.12 -0.12)">
     <defs>
      <path d="M 7.375 0 
L 7.375 71.578125 
L 56.453125 71.578125 
L 56.453125 59.46875 
L 21.828125 59.46875 
L 21.828125 42.53125 
L 51.703125 42.53125 
L 51.703125 30.421875 
L 21.828125 30.421875 
L 21.828125 0 
z
" id="Arial-BoldMT-70"/>
      <path d="M 7.28125 0 
L 7.28125 71.578125 
L 60.359375 71.578125 
L 60.359375 59.46875 
L 21.734375 59.46875 
L 21.734375 43.609375 
L 57.671875 43.609375 
L 57.671875 31.546875 
L 21.734375 31.546875 
L 21.734375 12.0625 
L 61.71875 12.0625 
L 61.71875 0 
z
" id="Arial-BoldMT-69"/>
      <path d="M 7.328125 0 
L 7.328125 71.578125 
L 37.75 71.578125 
Q 49.21875 71.578125 54.421875 69.640625 
Q 59.625 67.71875 62.75 62.78125 
Q 65.875 57.859375 65.875 51.515625 
Q 65.875 43.453125 61.125 38.203125 
Q 56.390625 32.953125 46.96875 31.59375 
Q 51.65625 28.859375 54.703125 25.578125 
Q 57.765625 22.3125 62.9375 13.96875 
L 71.6875 0 
L 54.390625 0 
L 43.953125 15.578125 
Q 38.375 23.921875 36.328125 26.09375 
Q 34.28125 28.265625 31.984375 29.078125 
Q 29.6875 29.890625 24.703125 29.890625 
L 21.78125 29.890625 
L 21.78125 0 
z
M 21.78125 41.3125 
L 32.46875 41.3125 
Q 42.875 41.3125 45.453125 42.1875 
Q 48.046875 43.0625 49.515625 45.203125 
Q 50.984375 47.359375 50.984375 50.59375 
Q 50.984375 54.203125 49.046875 56.421875 
Q 47.125 58.640625 43.609375 59.234375 
Q 41.84375 59.46875 33.0625 59.46875 
L 21.78125 59.46875 
z
" id="Arial-BoldMT-82"/>
     </defs>
     <use xlink:href="#Arial-BoldMT-70"/>
     <use x="61.083984" xlink:href="#Arial-BoldMT-69"/>
     <use x="127.783203" xlink:href="#Arial-BoldMT-82"/>
    </g>
   </g>
   <g id="text_31">
    <!-- 94.0% -->
    <g style="fill:#1a1a1a;" transform="translate(650.833125 185.115562)scale(0.12 -0.12)">
     <use xlink:href="#Arial-BoldMT-57"/>
     <use x="55.615234" xlink:href="#Arial-BoldMT-52"/>
     <use x="111.230469" xlink:href="#Arial-BoldMT-46"/>
     <use x="139.013672" xlink:href="#Arial-BoldMT-48"/>
     <use x="194.628906" xlink:href="#Arial-BoldMT-37"/>
    </g>
   </g>
   <g id="text_32">
    <!-- 96.1% -->
    <g style="fill:#1a1a1a;" transform="translate(650.833125 144.124646)scale(0.12 -0.12)">
     <use xlink:href="#Arial-BoldMT-57"/>
     <use x="55.615234" xlink:href="#Arial-BoldMT-54"/>
     <use x="111.230469" xlink:href="#Arial-BoldMT-46"/>
     <use x="139.013672" xlink:href="#Arial-BoldMT-49"/>
     <use x="194.628906" xlink:href="#Arial-BoldMT-37"/>
    </g>
   </g>
   <g id="text_33">
    <!-- 100K -->
    <g style="fill:#1a1a1a;" transform="translate(653.502187 688.146841)scale(0.12 -0.12)">
     <use xlink:href="#Arial-BoldMT-49"/>
     <use x="55.615234" xlink:href="#Arial-BoldMT-48"/>
     <use x="111.230469" xlink:href="#Arial-BoldMT-48"/>
     <use x="166.845703" xlink:href="#Arial-BoldMT-75"/>
    </g>
   </g>
   <g id="text_34">
    <!-- 96.7% -->
    <g style="fill:#1a1a1a;" transform="translate(732.859125 144.540091)scale(0.12 -0.12)">
     <use xlink:href="#Arial-BoldMT-57"/>
     <use x="55.615234" xlink:href="#Arial-BoldMT-54"/>
     <use x="111.230469" xlink:href="#Arial-BoldMT-46"/>
     <use x="139.013672" xlink:href="#Arial-BoldMT-55"/>
     <use x="194.628906" xlink:href="#Arial-BoldMT-37"/>
    </g>
   </g>
   <g id="text_35">
    <!-- 97.8% -->
    <g style="fill:#1a1a1a;" transform="translate(732.859125 119.352745)scale(0.12 -0.12)">
     <use xlink:href="#Arial-BoldMT-57"/>
     <use x="55.615234" xlink:href="#Arial-BoldMT-55"/>
     <use x="111.230469" xlink:href="#Arial-BoldMT-46"/>
     <use x="139.013672" xlink:href="#Arial-BoldMT-56"/>
     <use x="194.628906" xlink:href="#Arial-BoldMT-37"/>
    </g>
   </g>
   <g id="text_36">
    <!-- 500K -->
    <g style="fill:#1a1a1a;" transform="translate(735.528187 688.146841)scale(0.12 -0.12)">
     <use xlink:href="#Arial-BoldMT-53"/>
     <use x="55.615234" xlink:href="#Arial-BoldMT-48"/>
     <use x="111.230469" xlink:href="#Arial-BoldMT-48"/>
     <use x="166.845703" xlink:href="#Arial-BoldMT-75"/>
    </g>
   </g>
   <g id="text_37">
    <!-- GOC -->
    <g style="fill:#1a1a1a;" transform="translate(695.191125 707.353469)scale(0.12 -0.12)">
     <defs>
      <path d="M 4.34375 35.359375 
Q 4.34375 46.296875 7.625 53.71875 
Q 10.0625 59.1875 14.28125 63.53125 
Q 18.5 67.875 23.53125 69.96875 
Q 30.21875 72.796875 38.96875 72.796875 
Q 54.78125 72.796875 64.28125 62.984375 
Q 73.78125 53.171875 73.78125 35.6875 
Q 73.78125 18.359375 64.359375 8.5625 
Q 54.9375 -1.21875 39.15625 -1.21875 
Q 23.1875 -1.21875 13.765625 8.515625 
Q 4.34375 18.265625 4.34375 35.359375 
z
M 19.234375 35.84375 
Q 19.234375 23.6875 24.84375 17.40625 
Q 30.46875 11.140625 39.109375 11.140625 
Q 47.75 11.140625 53.296875 17.359375 
Q 58.84375 23.578125 58.84375 36.03125 
Q 58.84375 48.34375 53.4375 54.390625 
Q 48.046875 60.453125 39.109375 60.453125 
Q 30.171875 60.453125 24.703125 54.3125 
Q 19.234375 48.1875 19.234375 35.84375 
z
" id="Arial-BoldMT-79"/>
     </defs>
     <use xlink:href="#Arial-BoldMT-71"/>
     <use x="77.783203" xlink:href="#Arial-BoldMT-79"/>
     <use x="155.566406" xlink:href="#Arial-BoldMT-67"/>
    </g>
   </g>
   <g id="text_38">
    <!-- 91.4% -->
    <g style="fill:#1a1a1a;" transform="translate(814.885125 224.104144)scale(0.12 -0.12)">
     <use xlink:href="#Arial-BoldMT-57"/>
     <use x="55.615234" xlink:href="#Arial-BoldMT-49"/>
     <use x="111.230469" xlink:href="#Arial-BoldMT-46"/>
     <use x="139.013672" xlink:href="#Arial-BoldMT-52"/>
     <use x="194.628906" xlink:href="#Arial-BoldMT-37"/>
    </g>
   </g>
   <g id="text_39">
    <!-- 99.1% -->
    <g style="fill:#1a1a1a;" transform="translate(814.885125 99.410211)scale(0.12 -0.12)">
     <use xlink:href="#Arial-BoldMT-57"/>
     <use x="55.615234" xlink:href="#Arial-BoldMT-57"/>
     <use x="111.230469" xlink:href="#Arial-BoldMT-46"/>
     <use x="139.013672" xlink:href="#Arial-BoldMT-49"/>
     <use x="194.628906" xlink:href="#Arial-BoldMT-37"/>
    </g>
   </g>
   <g id="text_40">
    <!-- 100K -->
    <g style="fill:#1a1a1a;" transform="translate(817.554187 688.146841)scale(0.12 -0.12)">
     <use xlink:href="#Arial-BoldMT-49"/>
     <use x="55.615234" xlink:href="#Arial-BoldMT-48"/>
     <use x="111.230469" xlink:href="#Arial-BoldMT-48"/>
     <use x="166.845703" xlink:href="#Arial-BoldMT-75"/>
    </g>
   </g>
   <g id="text_41">
    <!-- 96.8% -->
    <g style="fill:#1a1a1a;" transform="translate(896.911125 143.331068)scale(0.12 -0.12)">
     <use xlink:href="#Arial-BoldMT-57"/>
     <use x="55.615234" xlink:href="#Arial-BoldMT-54"/>
     <use x="111.230469" xlink:href="#Arial-BoldMT-46"/>
     <use x="139.013672" xlink:href="#Arial-BoldMT-56"/>
     <use x="194.628906" xlink:href="#Arial-BoldMT-37"/>
    </g>
   </g>
   <g id="text_42">
    <!-- 99.6% -->
    <g style="fill:#1a1a1a;" transform="translate(896.911125 92.61678)scale(0.12 -0.12)">
     <use xlink:href="#Arial-BoldMT-57"/>
     <use x="55.615234" xlink:href="#Arial-BoldMT-57"/>
     <use x="111.230469" xlink:href="#Arial-BoldMT-46"/>
     <use x="139.013672" xlink:href="#Arial-BoldMT-54"/>
     <use x="194.628906" xlink:href="#Arial-BoldMT-37"/>
    </g>
   </g>
   <g id="text_43">
    <!-- 500K -->
    <g style="fill:#1a1a1a;" transform="translate(899.580187 688.146841)scale(0.12 -0.12)">
     <use xlink:href="#Arial-BoldMT-53"/>
     <use x="55.615234" xlink:href="#Arial-BoldMT-48"/>
     <use x="111.230469" xlink:href="#Arial-BoldMT-48"/>
     <use x="166.845703" xlink:href="#Arial-BoldMT-75"/>
    </g>
   </g>
   <g id="text_44">
    <!-- PED -->
    <g style="fill:#1a1a1a;" transform="translate(860.5725 707.353469)scale(0.12 -0.12)">
     <defs>
      <path d="M 7.28125 0 
L 7.28125 71.578125 
L 30.46875 71.578125 
Q 43.65625 71.578125 47.65625 70.515625 
Q 53.8125 68.890625 57.953125 63.5 
Q 62.109375 58.109375 62.109375 49.5625 
Q 62.109375 42.96875 59.71875 38.46875 
Q 57.328125 33.984375 53.640625 31.421875 
Q 49.953125 28.859375 46.140625 28.03125 
Q 40.96875 27 31.15625 27 
L 21.734375 27 
L 21.734375 0 
z
M 21.734375 59.46875 
L 21.734375 39.15625 
L 29.640625 39.15625 
Q 38.1875 39.15625 41.0625 40.28125 
Q 43.953125 41.40625 45.578125 43.796875 
Q 47.21875 46.1875 47.21875 49.359375 
Q 47.21875 53.265625 44.921875 55.796875 
Q 42.625 58.34375 39.109375 58.984375 
Q 36.53125 59.46875 28.71875 59.46875 
z
" id="Arial-BoldMT-80"/>
     </defs>
     <use xlink:href="#Arial-BoldMT-80"/>
     <use x="66.699219" xlink:href="#Arial-BoldMT-69"/>
     <use x="133.398438" xlink:href="#Arial-BoldMT-68"/>
    </g>
   </g>
   <g id="text_45">
    <!-- 79.3% -->
    <g style="fill:#1a1a1a;" transform="translate(978.937125 402.241189)scale(0.12 -0.12)">
     <use xlink:href="#Arial-BoldMT-55"/>
     <use x="55.615234" xlink:href="#Arial-BoldMT-57"/>
     <use x="111.230469" xlink:href="#Arial-BoldMT-46"/>
     <use x="139.013672" xlink:href="#Arial-BoldMT-51"/>
     <use x="194.628906" xlink:href="#Arial-BoldMT-37"/>
    </g>
   </g>
   <g id="text_46">
    <!-- 91.1% -->
    <g style="fill:#1a1a1a;" transform="translate(978.937125 218.120593)scale(0.12 -0.12)">
     <use xlink:href="#Arial-BoldMT-57"/>
     <use x="55.615234" xlink:href="#Arial-BoldMT-49"/>
     <use x="111.230469" xlink:href="#Arial-BoldMT-46"/>
     <use x="139.013672" xlink:href="#Arial-BoldMT-49"/>
     <use x="194.628906" xlink:href="#Arial-BoldMT-37"/>
    </g>
   </g>
   <g id="text_47">
    <!-- 100K -->
    <g style="fill:#1a1a1a;" transform="translate(981.606187 688.146841)scale(0.12 -0.12)">
     <use xlink:href="#Arial-BoldMT-49"/>
     <use x="55.615234" xlink:href="#Arial-BoldMT-48"/>
     <use x="111.230469" xlink:href="#Arial-BoldMT-48"/>
     <use x="166.845703" xlink:href="#Arial-BoldMT-75"/>
    </g>
   </g>
   <g id="text_48">
    <!-- 92.2% -->
    <g style="fill:#1a1a1a;" transform="translate(1060.963125 211.756375)scale(0.12 -0.12)">
     <use xlink:href="#Arial-BoldMT-57"/>
     <use x="55.615234" xlink:href="#Arial-BoldMT-50"/>
     <use x="111.230469" xlink:href="#Arial-BoldMT-46"/>
     <use x="139.013672" xlink:href="#Arial-BoldMT-50"/>
     <use x="194.628906" xlink:href="#Arial-BoldMT-37"/>
    </g>
   </g>
   <g id="text_49">
    <!-- 95.4% -->
    <g style="fill:#1a1a1a;" transform="translate(1060.963125 154.308305)scale(0.12 -0.12)">
     <use xlink:href="#Arial-BoldMT-57"/>
     <use x="55.615234" xlink:href="#Arial-BoldMT-53"/>
     <use x="111.230469" xlink:href="#Arial-BoldMT-46"/>
     <use x="139.013672" xlink:href="#Arial-BoldMT-52"/>
     <use x="194.628906" xlink:href="#Arial-BoldMT-37"/>
    </g>
   </g>
   <g id="text_50">
    <!-- 500K -->
    <g style="fill:#1a1a1a;" transform="translate(1063.632187 688.146841)scale(0.12 -0.12)">
     <use xlink:href="#Arial-BoldMT-53"/>
     <use x="55.615234" xlink:href="#Arial-BoldMT-48"/>
     <use x="111.230469" xlink:href="#Arial-BoldMT-48"/>
     <use x="166.845703" xlink:href="#Arial-BoldMT-75"/>
    </g>
   </g>
   <g id="text_51">
    <!-- SHN -->
    <g style="fill:#1a1a1a;" transform="translate(1024.293563 707.353469)scale(0.12 -0.12)">
     <defs>
      <path d="M 3.609375 23.296875 
L 17.671875 24.65625 
Q 18.953125 17.578125 22.828125 14.25 
Q 26.703125 10.9375 33.296875 10.9375 
Q 40.28125 10.9375 43.8125 13.890625 
Q 47.359375 16.84375 47.359375 20.796875 
Q 47.359375 23.34375 45.875 25.125 
Q 44.390625 26.90625 40.671875 28.21875 
Q 38.140625 29.109375 29.109375 31.34375 
Q 17.484375 34.234375 12.796875 38.421875 
Q 6.203125 44.34375 6.203125 52.828125 
Q 6.203125 58.296875 9.296875 63.0625 
Q 12.40625 67.828125 18.234375 70.3125 
Q 24.078125 72.796875 32.328125 72.796875 
Q 45.796875 72.796875 52.609375 66.890625 
Q 59.421875 60.984375 59.765625 51.125 
L 45.3125 50.484375 
Q 44.390625 56 41.328125 58.421875 
Q 38.28125 60.84375 32.171875 60.84375 
Q 25.875 60.84375 22.3125 58.25 
Q 20.015625 56.59375 20.015625 53.8125 
Q 20.015625 51.265625 22.171875 49.46875 
Q 24.90625 47.171875 35.453125 44.671875 
Q 46 42.1875 51.046875 39.515625 
Q 56.109375 36.859375 58.953125 32.25 
Q 61.8125 27.640625 61.8125 20.84375 
Q 61.8125 14.703125 58.390625 9.328125 
Q 54.984375 3.953125 48.734375 1.34375 
Q 42.484375 -1.265625 33.15625 -1.265625 
Q 19.578125 -1.265625 12.296875 5 
Q 5.03125 11.28125 3.609375 23.296875 
z
" id="Arial-BoldMT-83"/>
      <path d="M 7.328125 0 
L 7.328125 71.578125 
L 21.78125 71.578125 
L 21.78125 43.40625 
L 50.09375 43.40625 
L 50.09375 71.578125 
L 64.546875 71.578125 
L 64.546875 0 
L 50.09375 0 
L 50.09375 31.296875 
L 21.78125 31.296875 
L 21.78125 0 
z
" id="Arial-BoldMT-72"/>
      <path d="M 7.421875 0 
L 7.421875 71.578125 
L 21.484375 71.578125 
L 50.78125 23.78125 
L 50.78125 71.578125 
L 64.203125 71.578125 
L 64.203125 0 
L 49.703125 0 
L 20.84375 46.6875 
L 20.84375 0 
z
" id="Arial-BoldMT-78"/>
     </defs>
     <use xlink:href="#Arial-BoldMT-83"/>
     <use x="66.699219" xlink:href="#Arial-BoldMT-72"/>
     <use x="138.916016" xlink:href="#Arial-BoldMT-78"/>
    </g>
   </g>
   <g id="text_52">
    <!-- 90.3% -->
    <g style="fill:#1a1a1a;" transform="translate(1142.989125 239.402211)scale(0.12 -0.12)">
     <use xlink:href="#Arial-BoldMT-57"/>
     <use x="55.615234" xlink:href="#Arial-BoldMT-48"/>
     <use x="111.230469" xlink:href="#Arial-BoldMT-46"/>
     <use x="139.013672" xlink:href="#Arial-BoldMT-51"/>
     <use x="194.628906" xlink:href="#Arial-BoldMT-37"/>
    </g>
   </g>
   <g id="text_53">
    <!-- 93.7% -->
    <g style="fill:#1a1a1a;" transform="translate(1142.989125 179.408984)scale(0.12 -0.12)">
     <use xlink:href="#Arial-BoldMT-57"/>
     <use x="55.615234" xlink:href="#Arial-BoldMT-51"/>
     <use x="111.230469" xlink:href="#Arial-BoldMT-46"/>
     <use x="139.013672" xlink:href="#Arial-BoldMT-55"/>
     <use x="194.628906" xlink:href="#Arial-BoldMT-37"/>
    </g>
   </g>
   <g id="text_54">
    <!-- 100K -->
    <g style="fill:#1a1a1a;" transform="translate(1145.658187 688.146841)scale(0.12 -0.12)">
     <use xlink:href="#Arial-BoldMT-49"/>
     <use x="55.615234" xlink:href="#Arial-BoldMT-48"/>
     <use x="111.230469" xlink:href="#Arial-BoldMT-48"/>
     <use x="166.845703" xlink:href="#Arial-BoldMT-75"/>
    </g>
   </g>
   <g id="text_55">
    <!-- 97.0% -->
    <g style="fill:#1a1a1a;" transform="translate(1225.015125 140.582192)scale(0.12 -0.12)">
     <use xlink:href="#Arial-BoldMT-57"/>
     <use x="55.615234" xlink:href="#Arial-BoldMT-55"/>
     <use x="111.230469" xlink:href="#Arial-BoldMT-46"/>
     <use x="139.013672" xlink:href="#Arial-BoldMT-48"/>
     <use x="194.628906" xlink:href="#Arial-BoldMT-37"/>
    </g>
   </g>
   <g id="text_56">
    <!-- 98.5% -->
    <g style="fill:#1a1a1a;" transform="translate(1225.015125 109.603378)scale(0.12 -0.12)">
     <use xlink:href="#Arial-BoldMT-57"/>
     <use x="55.615234" xlink:href="#Arial-BoldMT-56"/>
     <use x="111.230469" xlink:href="#Arial-BoldMT-46"/>
     <use x="139.013672" xlink:href="#Arial-BoldMT-53"/>
     <use x="194.628906" xlink:href="#Arial-BoldMT-37"/>
    </g>
   </g>
   <g id="text_57">
    <!-- 500K -->
    <g style="fill:#1a1a1a;" transform="translate(1227.684188 688.146841)scale(0.12 -0.12)">
     <use xlink:href="#Arial-BoldMT-53"/>
     <use x="55.615234" xlink:href="#Arial-BoldMT-48"/>
     <use x="111.230469" xlink:href="#Arial-BoldMT-48"/>
     <use x="166.845703" xlink:href="#Arial-BoldMT-75"/>
    </g>
   </g>
   <g id="text_58">
    <!-- SIG -->
    <g style="fill:#1a1a1a;" transform="translate(1190.678062 707.353469)scale(0.12 -0.12)">
     <use xlink:href="#Arial-BoldMT-83"/>
     <use x="66.699219" xlink:href="#Arial-BoldMT-73"/>
     <use x="94.482422" xlink:href="#Arial-BoldMT-71"/>
    </g>
   </g>
   <g id="legend_1">
    <g id="patch_33">
     <path d="M 1054.320781 53.127187 
L 1275.34 53.127187 
Q 1277.54 53.127187 1277.54 50.927187 
L 1277.54 20.66 
Q 1277.54 18.46 1275.34 18.46 
L 1054.320781 18.46 
Q 1052.120781 18.46 1052.120781 20.66 
L 1052.120781 50.927187 
Q 1052.120781 53.127187 1054.320781 53.127187 
z
" style="fill:#ffffff;opacity:0.8;stroke:#cccccc;stroke-linejoin:miter;"/>
    </g>
    <g id="patch_34">
     <path d="M 1056.520781 30.733594 
L 1078.520781 30.733594 
L 1078.520781 23.033594 
L 1056.520781 23.033594 
z
" style="fill:#ff9f9b;stroke:#ffffff;stroke-linejoin:miter;"/>
    </g>
    <g id="text_59">
     <!-- Finetune Performance -->
     <g style="fill:#262626;" transform="translate(1087.320781 30.733594)scale(0.11 -0.11)">
      <defs>
       <path d="M 7.171875 58.890625 
L 7.171875 71.578125 
L 20.90625 71.578125 
L 20.90625 58.890625 
z
M 7.171875 0 
L 7.171875 51.859375 
L 20.90625 51.859375 
L 20.90625 0 
z
" id="Arial-BoldMT-105"/>
       <path d="M 54.34375 0 
L 40.625 0 
L 40.625 26.46875 
Q 40.625 34.859375 39.75 37.328125 
Q 38.875 39.796875 36.890625 41.15625 
Q 34.90625 42.53125 32.125 42.53125 
Q 28.5625 42.53125 25.734375 40.578125 
Q 22.90625 38.625 21.84375 35.390625 
Q 20.796875 32.171875 20.796875 23.484375 
L 20.796875 0 
L 7.078125 0 
L 7.078125 51.859375 
L 19.828125 51.859375 
L 19.828125 44.234375 
Q 26.609375 53.03125 36.921875 53.03125 
Q 41.453125 53.03125 45.203125 51.390625 
Q 48.96875 49.75 50.890625 47.203125 
Q 52.828125 44.671875 53.578125 41.453125 
Q 54.34375 38.234375 54.34375 32.234375 
z
" id="Arial-BoldMT-110"/>
       <path d="M 37.203125 16.5 
L 50.875 14.203125 
Q 48.25 6.6875 42.546875 2.75 
Q 36.859375 -1.171875 28.328125 -1.171875 
Q 14.796875 -1.171875 8.296875 7.671875 
Q 3.171875 14.75 3.171875 25.53125 
Q 3.171875 38.421875 9.90625 45.71875 
Q 16.65625 53.03125 26.953125 53.03125 
Q 38.53125 53.03125 45.21875 45.390625 
Q 51.90625 37.75 51.609375 21.96875 
L 17.234375 21.96875 
Q 17.390625 15.875 20.5625 12.46875 
Q 23.734375 9.078125 28.46875 9.078125 
Q 31.6875 9.078125 33.875 10.828125 
Q 36.078125 12.59375 37.203125 16.5 
z
M 37.984375 30.375 
Q 37.84375 36.328125 34.90625 39.421875 
Q 31.984375 42.53125 27.78125 42.53125 
Q 23.296875 42.53125 20.359375 39.265625 
Q 17.4375 35.984375 17.484375 30.375 
z
" id="Arial-BoldMT-101"/>
       <path d="M 30.953125 51.859375 
L 30.953125 40.921875 
L 21.578125 40.921875 
L 21.578125 20.015625 
Q 21.578125 13.671875 21.84375 12.625 
Q 22.125 11.578125 23.078125 10.890625 
Q 24.03125 10.203125 25.390625 10.203125 
Q 27.296875 10.203125 30.90625 11.53125 
L 32.078125 0.875 
Q 27.296875 -1.171875 21.234375 -1.171875 
Q 17.53125 -1.171875 14.546875 0.0625 
Q 11.578125 1.3125 10.1875 3.296875 
Q 8.796875 5.28125 8.25 8.640625 
Q 7.8125 11.03125 7.8125 18.3125 
L 7.8125 40.921875 
L 1.515625 40.921875 
L 1.515625 51.859375 
L 7.8125 51.859375 
L 7.8125 62.15625 
L 21.578125 70.171875 
L 21.578125 51.859375 
z
" id="Arial-BoldMT-116"/>
       <path d="M 41.3125 0 
L 41.3125 7.765625 
Q 38.484375 3.609375 33.859375 1.21875 
Q 29.25 -1.171875 24.125 -1.171875 
Q 18.890625 -1.171875 14.734375 1.125 
Q 10.59375 3.421875 8.734375 7.5625 
Q 6.890625 11.71875 6.890625 19.046875 
L 6.890625 51.859375 
L 20.609375 51.859375 
L 20.609375 28.03125 
Q 20.609375 17.09375 21.359375 14.625 
Q 22.125 12.15625 24.125 10.71875 
Q 26.125 9.28125 29.203125 9.28125 
Q 32.71875 9.28125 35.5 11.203125 
Q 38.28125 13.140625 39.296875 15.984375 
Q 40.328125 18.84375 40.328125 29.984375 
L 40.328125 51.859375 
L 54.046875 51.859375 
L 54.046875 0 
z
" id="Arial-BoldMT-117"/>
       <path id="Arial-BoldMT-32"/>
       <path d="M 20.3125 0 
L 6.59375 0 
L 6.59375 51.859375 
L 19.34375 51.859375 
L 19.34375 44.484375 
Q 22.609375 49.703125 25.21875 51.359375 
Q 27.828125 53.03125 31.15625 53.03125 
Q 35.84375 53.03125 40.1875 50.4375 
L 35.9375 38.484375 
Q 32.46875 40.71875 29.5 40.71875 
Q 26.609375 40.71875 24.609375 39.125 
Q 22.609375 37.546875 21.453125 33.390625 
Q 20.3125 29.25 20.3125 16.015625 
z
" id="Arial-BoldMT-114"/>
       <path d="M 1.171875 51.859375 
L 8.796875 51.859375 
L 8.796875 55.765625 
Q 8.796875 62.3125 10.1875 65.53125 
Q 11.578125 68.75 15.3125 70.765625 
Q 19.046875 72.796875 24.75 72.796875 
Q 30.609375 72.796875 36.234375 71.046875 
L 34.375 61.46875 
Q 31.109375 62.25 28.078125 62.25 
Q 25.09375 62.25 23.796875 60.859375 
Q 22.515625 59.46875 22.515625 55.515625 
L 22.515625 51.859375 
L 32.765625 51.859375 
L 32.765625 41.0625 
L 22.515625 41.0625 
L 22.515625 0 
L 8.796875 0 
L 8.796875 41.0625 
L 1.171875 41.0625 
z
" id="Arial-BoldMT-102"/>
       <path d="M 4 26.65625 
Q 4 33.5 7.375 39.890625 
Q 10.75 46.296875 16.921875 49.65625 
Q 23.09375 53.03125 30.71875 53.03125 
Q 42.484375 53.03125 50 45.390625 
Q 57.515625 37.75 57.515625 26.078125 
Q 57.515625 14.3125 49.921875 6.5625 
Q 42.328125 -1.171875 30.8125 -1.171875 
Q 23.6875 -1.171875 17.21875 2.046875 
Q 10.75 5.28125 7.375 11.5 
Q 4 17.71875 4 26.65625 
z
M 18.0625 25.921875 
Q 18.0625 18.21875 21.71875 14.109375 
Q 25.390625 10.015625 30.765625 10.015625 
Q 36.140625 10.015625 39.765625 14.109375 
Q 43.40625 18.21875 43.40625 26.03125 
Q 43.40625 33.640625 39.765625 37.734375 
Q 36.140625 41.84375 30.765625 41.84375 
Q 25.390625 41.84375 21.71875 37.734375 
Q 18.0625 33.640625 18.0625 25.921875 
z
" id="Arial-BoldMT-111"/>
       <path d="M 6.15625 51.859375 
L 18.796875 51.859375 
L 18.796875 44.78125 
Q 25.59375 53.03125 34.96875 53.03125 
Q 39.9375 53.03125 43.59375 50.96875 
Q 47.265625 48.921875 49.609375 44.78125 
Q 53.03125 48.921875 56.984375 50.96875 
Q 60.9375 53.03125 65.4375 53.03125 
Q 71.140625 53.03125 75.09375 50.703125 
Q 79.046875 48.390625 81 43.890625 
Q 82.421875 40.578125 82.421875 33.15625 
L 82.421875 0 
L 68.703125 0 
L 68.703125 29.640625 
Q 68.703125 37.359375 67.28125 39.59375 
Q 65.375 42.53125 61.421875 42.53125 
Q 58.546875 42.53125 56 40.765625 
Q 53.46875 39.015625 52.34375 35.625 
Q 51.21875 32.234375 51.21875 24.90625 
L 51.21875 0 
L 37.5 0 
L 37.5 28.421875 
Q 37.5 35.984375 36.765625 38.171875 
Q 36.03125 40.375 34.484375 41.453125 
Q 32.953125 42.53125 30.328125 42.53125 
Q 27.15625 42.53125 24.609375 40.8125 
Q 22.078125 39.109375 20.96875 35.890625 
Q 19.875 32.671875 19.875 25.203125 
L 19.875 0 
L 6.15625 0 
z
" id="Arial-BoldMT-109"/>
       <path d="M 17.4375 36.03125 
L 4.984375 38.28125 
Q 7.078125 45.796875 12.203125 49.40625 
Q 17.328125 53.03125 27.4375 53.03125 
Q 36.625 53.03125 41.109375 50.859375 
Q 45.609375 48.6875 47.4375 45.34375 
Q 49.265625 42 49.265625 33.0625 
L 49.125 17.046875 
Q 49.125 10.203125 49.78125 6.953125 
Q 50.4375 3.71875 52.25 0 
L 38.671875 0 
Q 38.140625 1.375 37.359375 4.046875 
Q 37.015625 5.28125 36.859375 5.671875 
Q 33.34375 2.25 29.34375 0.53125 
Q 25.34375 -1.171875 20.796875 -1.171875 
Q 12.796875 -1.171875 8.171875 3.171875 
Q 3.5625 7.515625 3.5625 14.15625 
Q 3.5625 18.5625 5.65625 22 
Q 7.765625 25.4375 11.546875 27.265625 
Q 15.328125 29.109375 22.46875 30.46875 
Q 32.078125 32.28125 35.796875 33.84375 
L 35.796875 35.203125 
Q 35.796875 39.15625 33.84375 40.84375 
Q 31.890625 42.53125 26.46875 42.53125 
Q 22.796875 42.53125 20.75 41.09375 
Q 18.703125 39.65625 17.4375 36.03125 
z
M 35.796875 24.90625 
Q 33.15625 24.03125 27.4375 22.796875 
Q 21.734375 21.578125 19.96875 20.40625 
Q 17.28125 18.5 17.28125 15.578125 
Q 17.28125 12.703125 19.421875 10.59375 
Q 21.578125 8.5 24.90625 8.5 
Q 28.609375 8.5 31.984375 10.9375 
Q 34.46875 12.796875 35.25 15.484375 
Q 35.796875 17.234375 35.796875 22.171875 
z
" id="Arial-BoldMT-97"/>
       <path d="M 52.390625 36.53125 
L 38.875 34.078125 
Q 38.1875 38.140625 35.765625 40.1875 
Q 33.34375 42.234375 29.5 42.234375 
Q 24.359375 42.234375 21.3125 38.6875 
Q 18.265625 35.15625 18.265625 26.859375 
Q 18.265625 17.625 21.359375 13.8125 
Q 24.46875 10.015625 29.6875 10.015625 
Q 33.59375 10.015625 36.078125 12.234375 
Q 38.578125 14.453125 39.59375 19.875 
L 53.078125 17.578125 
Q 50.984375 8.296875 45.015625 3.5625 
Q 39.0625 -1.171875 29.046875 -1.171875 
Q 17.671875 -1.171875 10.90625 6 
Q 4.15625 13.1875 4.15625 25.875 
Q 4.15625 38.71875 10.9375 45.875 
Q 17.71875 53.03125 29.296875 53.03125 
Q 38.765625 53.03125 44.359375 48.953125 
Q 49.953125 44.875 52.390625 36.53125 
z
" id="Arial-BoldMT-99"/>
      </defs>
      <use xlink:href="#Arial-BoldMT-70"/>
      <use x="61.083984" xlink:href="#Arial-BoldMT-105"/>
      <use x="88.867188" xlink:href="#Arial-BoldMT-110"/>
      <use x="149.951172" xlink:href="#Arial-BoldMT-101"/>
      <use x="205.566406" xlink:href="#Arial-BoldMT-116"/>
      <use x="238.867188" xlink:href="#Arial-BoldMT-117"/>
      <use x="299.951172" xlink:href="#Arial-BoldMT-110"/>
      <use x="361.035156" xlink:href="#Arial-BoldMT-101"/>
      <use x="416.650391" xlink:href="#Arial-BoldMT-32"/>
      <use x="444.433594" xlink:href="#Arial-BoldMT-80"/>
      <use x="511.132812" xlink:href="#Arial-BoldMT-101"/>
      <use x="566.748047" xlink:href="#Arial-BoldMT-114"/>
      <use x="605.664062" xlink:href="#Arial-BoldMT-102"/>
      <use x="638.964844" xlink:href="#Arial-BoldMT-111"/>
      <use x="700.048828" xlink:href="#Arial-BoldMT-114"/>
      <use x="738.964844" xlink:href="#Arial-BoldMT-109"/>
      <use x="827.880859" xlink:href="#Arial-BoldMT-97"/>
      <use x="883.496094" xlink:href="#Arial-BoldMT-110"/>
      <use x="944.580078" xlink:href="#Arial-BoldMT-99"/>
      <use x="1000.195312" xlink:href="#Arial-BoldMT-101"/>
     </g>
    </g>
    <g id="patch_35">
     <path d="M 1056.520781 46.412031 
L 1078.520781 46.412031 
L 1078.520781 38.712031 
L 1056.520781 38.712031 
z
" style="fill:#ffffff;stroke:#ffffff;stroke-linejoin:miter;"/>
    </g>
    <g id="text_60">
     <!-- Other colors: Copycat Performance -->
     <g style="fill:#262626;" transform="translate(1087.320781 46.412031)scale(0.11 -0.11)">
      <defs>
       <path d="M 20.84375 71.578125 
L 20.84375 45.265625 
Q 27.484375 53.03125 36.71875 53.03125 
Q 41.453125 53.03125 45.265625 51.265625 
Q 49.078125 49.515625 51 46.78125 
Q 52.9375 44.046875 53.640625 40.71875 
Q 54.34375 37.40625 54.34375 30.421875 
L 54.34375 0 
L 40.625 0 
L 40.625 27.390625 
Q 40.625 35.546875 39.84375 37.734375 
Q 39.0625 39.9375 37.078125 41.234375 
Q 35.109375 42.53125 32.125 42.53125 
Q 28.71875 42.53125 26.03125 40.859375 
Q 23.34375 39.203125 22.09375 35.859375 
Q 20.84375 32.515625 20.84375 25.984375 
L 20.84375 0 
L 7.125 0 
L 7.125 71.578125 
z
" id="Arial-BoldMT-104"/>
       <path d="M 7.171875 0 
L 7.171875 71.578125 
L 20.90625 71.578125 
L 20.90625 0 
z
" id="Arial-BoldMT-108"/>
       <path d="M 2.34375 14.796875 
L 16.109375 16.890625 
Q 17 12.890625 19.671875 10.8125 
Q 22.359375 8.734375 27.203125 8.734375 
Q 32.515625 8.734375 35.203125 10.6875 
Q 37.015625 12.0625 37.015625 14.359375 
Q 37.015625 15.921875 36.03125 16.9375 
Q 35.015625 17.921875 31.453125 18.75 
Q 14.84375 22.40625 10.40625 25.4375 
Q 4.25 29.640625 4.25 37.109375 
Q 4.25 43.84375 9.5625 48.4375 
Q 14.890625 53.03125 26.078125 53.03125 
Q 36.71875 53.03125 41.890625 49.5625 
Q 47.078125 46.09375 49.03125 39.3125 
L 36.078125 36.921875 
Q 35.25 39.9375 32.921875 41.546875 
Q 30.609375 43.171875 26.3125 43.171875 
Q 20.90625 43.171875 18.5625 41.65625 
Q 17 40.578125 17 38.875 
Q 17 37.40625 18.359375 36.375 
Q 20.21875 35.015625 31.171875 32.515625 
Q 42.140625 30.03125 46.484375 26.421875 
Q 50.78125 22.75 50.78125 16.21875 
Q 50.78125 9.078125 44.828125 3.953125 
Q 38.875 -1.171875 27.203125 -1.171875 
Q 16.609375 -1.171875 10.421875 3.125 
Q 4.25 7.421875 2.34375 14.796875 
z
" id="Arial-BoldMT-115"/>
       <path d="M 9.8125 38.140625 
L 9.8125 51.859375 
L 23.53125 51.859375 
L 23.53125 38.140625 
z
M 9.8125 0 
L 9.8125 13.71875 
L 23.53125 13.71875 
L 23.53125 0 
z
" id="Arial-BoldMT-58"/>
       <path d="M 6.78125 51.859375 
L 19.578125 51.859375 
L 19.578125 44.234375 
Q 22.078125 48.140625 26.3125 50.578125 
Q 30.5625 53.03125 35.75 53.03125 
Q 44.78125 53.03125 51.078125 45.953125 
Q 57.375 38.875 57.375 26.21875 
Q 57.375 13.234375 51.015625 6.03125 
Q 44.671875 -1.171875 35.640625 -1.171875 
Q 31.34375 -1.171875 27.84375 0.53125 
Q 24.359375 2.25 20.515625 6.390625 
L 20.515625 -19.734375 
L 6.78125 -19.734375 
z
M 20.359375 26.8125 
Q 20.359375 18.0625 23.828125 13.890625 
Q 27.296875 9.71875 32.28125 9.71875 
Q 37.0625 9.71875 40.234375 13.546875 
Q 43.40625 17.390625 43.40625 26.125 
Q 43.40625 34.28125 40.125 38.234375 
Q 36.859375 42.1875 32.03125 42.1875 
Q 27 42.1875 23.671875 38.296875 
Q 20.359375 34.421875 20.359375 26.8125 
z
" id="Arial-BoldMT-112"/>
       <path d="M 0.6875 51.859375 
L 15.28125 51.859375 
L 27.6875 15.046875 
L 39.796875 51.859375 
L 54 51.859375 
L 35.6875 1.953125 
L 32.421875 -7.078125 
Q 30.609375 -11.625 28.96875 -14.015625 
Q 27.34375 -16.40625 25.21875 -17.890625 
Q 23.09375 -19.390625 19.984375 -20.21875 
Q 16.890625 -21.046875 12.984375 -21.046875 
Q 9.03125 -21.046875 5.21875 -20.21875 
L 4 -9.46875 
Q 7.234375 -10.109375 9.8125 -10.109375 
Q 14.59375 -10.109375 16.890625 -7.296875 
Q 19.1875 -4.5 20.40625 -0.140625 
z
" id="Arial-BoldMT-121"/>
      </defs>
      <use xlink:href="#Arial-BoldMT-79"/>
      <use x="77.783203" xlink:href="#Arial-BoldMT-116"/>
      <use x="111.083984" xlink:href="#Arial-BoldMT-104"/>
      <use x="172.167969" xlink:href="#Arial-BoldMT-101"/>
      <use x="227.783203" xlink:href="#Arial-BoldMT-114"/>
      <use x="266.699219" xlink:href="#Arial-BoldMT-32"/>
      <use x="294.482422" xlink:href="#Arial-BoldMT-99"/>
      <use x="350.097656" xlink:href="#Arial-BoldMT-111"/>
      <use x="411.181641" xlink:href="#Arial-BoldMT-108"/>
      <use x="438.964844" xlink:href="#Arial-BoldMT-111"/>
      <use x="500.048828" xlink:href="#Arial-BoldMT-114"/>
      <use x="538.964844" xlink:href="#Arial-BoldMT-115"/>
      <use x="594.580078" xlink:href="#Arial-BoldMT-58"/>
      <use x="627.880859" xlink:href="#Arial-BoldMT-32"/>
      <use x="655.664062" xlink:href="#Arial-BoldMT-67"/>
      <use x="727.880859" xlink:href="#Arial-BoldMT-111"/>
      <use x="788.964844" xlink:href="#Arial-BoldMT-112"/>
      <use x="850.048828" xlink:href="#Arial-BoldMT-121"/>
      <use x="905.664062" xlink:href="#Arial-BoldMT-99"/>
      <use x="961.279297" xlink:href="#Arial-BoldMT-97"/>
      <use x="1016.894531" xlink:href="#Arial-BoldMT-116"/>
      <use x="1050.195312" xlink:href="#Arial-BoldMT-32"/>
      <use x="1077.978516" xlink:href="#Arial-BoldMT-80"/>
      <use x="1144.677734" xlink:href="#Arial-BoldMT-101"/>
      <use x="1200.292969" xlink:href="#Arial-BoldMT-114"/>
      <use x="1239.208984" xlink:href="#Arial-BoldMT-102"/>
      <use x="1272.509766" xlink:href="#Arial-BoldMT-111"/>
      <use x="1333.59375" xlink:href="#Arial-BoldMT-114"/>
      <use x="1372.509766" xlink:href="#Arial-BoldMT-109"/>
      <use x="1461.425781" xlink:href="#Arial-BoldMT-97"/>
      <use x="1517.041016" xlink:href="#Arial-BoldMT-110"/>
      <use x="1578.125" xlink:href="#Arial-BoldMT-99"/>
      <use x="1633.740234" xlink:href="#Arial-BoldMT-101"/>
     </g>
    </g>
   </g>
  </g>
 </g>
 <defs>
  <clipPath id="peb758800bb">
   <rect height="681.096573" width="1230.39" x="52.65" y="12.96"/>
  </clipPath>
 </defs>
</svg>
